solid OpenSCAD_Model
  facet normal -1.000000 -0.000000 -0.000000
    outer loop
      vertex 0.000000 20.000000 0.000000
      vertex 0.000000 20.000000 7.000000
      vertex 0.000000 50.000000 0.000000
    endloop
  endfacet
  facet normal -1.000000 0.000000 0.000000
    outer loop
      vertex 0.000000 50.000000 0.000000
      vertex 0.000000 20.000000 7.000000
      vertex 0.000000 50.000000 7.000000
    endloop
  endfacet
  facet normal 0.000000 -1.000000 0.000000
    outer loop
      vertex 20.000000 20.000000 0.000000
      vertex 20.000000 20.000000 7.000000
      vertex 0.000000 20.000000 7.000000
    endloop
  endfacet
  facet normal -0.000000 -1.000000 -0.000000
    outer loop
      vertex 0.000000 20.000000 0.000000
      vertex 20.000000 20.000000 0.000000
      vertex 0.000000 20.000000 7.000000
    endloop
  endfacet
  facet normal -0.000000 -0.000000 -1.000000
    outer loop
      vertex 0.000000 20.000000 0.000000
      vertex 0.000000 50.000000 0.000000
      vertex 20.000000 20.000000 0.000000
    endloop
  endfacet
  facet normal 0.000000 0.000000 -1.000000
    outer loop
      vertex 20.000000 20.000000 0.000000
      vertex 0.000000 50.000000 0.000000
      vertex 20.000000 50.000000 0.000000
    endloop
  endfacet
  facet normal 0.000000 -0.000000 -1.000000
    outer loop
      vertex 20.000000 50.000000 0.000000
      vertex 20.000000 70.000000 0.000000
      vertex 50.000000 70.000000 0.000000
    endloop
  endfacet
  facet normal 0.000000 0.000000 -1.000000
    outer loop
      vertex 45.927051 47.853170 0.000000
      vertex 50.000000 70.000000 0.000000
      vertex 50.000000 50.000000 0.000000
    endloop
  endfacet
  facet normal 0.000000 0.000000 -1.000000
    outer loop
      vertex 47.427051 43.236644 0.000000
      vertex 50.000000 50.000000 0.000000
      vertex 70.000000 50.000000 0.000000
    endloop
  endfacet
  facet normal -0.000000 0.000000 -1.000000
    outer loop
      vertex 50.000000 20.000000 0.000000
      vertex 70.000000 50.000000 0.000000
      vertex 70.000000 20.000000 0.000000
    endloop
  endfacet
  facet normal -0.000000 0.000000 -1.000000
    outer loop
      vertex 47.427051 23.236644 0.000000
      vertex 70.000000 50.000000 0.000000
      vertex 50.000000 20.000000 0.000000
    endloop
  endfacet
  facet normal 0.000000 0.000000 -1.000000
    outer loop
      vertex 22.572949 23.236644 0.000000
      vertex 20.000000 20.000000 0.000000
      vertex 22.000000 25.000000 0.000000
    endloop
  endfacet
  facet normal 0.000000 0.000000 -1.000000
    outer loop
      vertex 50.000000 20.000000 0.000000
      vertex 50.000000 0.000000 0.000000
      vertex 20.000000 20.000000 0.000000
    endloop
  endfacet
  facet normal 0.000000 0.000000 -1.000000
    outer loop
      vertex 22.572949 26.763356 0.000000
      vertex 50.000000 70.000000 0.000000
      vertex 24.072949 27.853170 0.000000
    endloop
  endfacet
  facet normal -0.000000 0.000000 -1.000000
    outer loop
      vertex 28.000000 45.000000 0.000000
      vertex 50.000000 70.000000 0.000000
      vertex 27.427051 43.236644 0.000000
    endloop
  endfacet
  facet normal 0.000000 0.000000 -1.000000
    outer loop
      vertex 20.000000 50.000000 0.000000
      vertex 22.000000 25.000000 0.000000
      vertex 20.000000 20.000000 0.000000
    endloop
  endfacet
  facet normal 0.000000 0.000000 -1.000000
    outer loop
      vertex 24.072949 22.146830 0.000000
      vertex 20.000000 20.000000 0.000000
      vertex 22.572949 23.236644 0.000000
    endloop
  endfacet
  facet normal -0.000000 0.000000 -1.000000
    outer loop
      vertex 28.000000 25.000000 0.000000
      vertex 70.000000 50.000000 0.000000
      vertex 27.427051 23.236644 0.000000
    endloop
  endfacet
  facet normal -0.000000 0.000000 -1.000000
    outer loop
      vertex 20.000000 20.000000 0.000000
      vertex 24.072949 22.146830 0.000000
      vertex 50.000000 20.000000 0.000000
    endloop
  endfacet
  facet normal -0.000000 0.000000 -1.000000
    outer loop
      vertex 27.427051 23.236644 0.000000
      vertex 70.000000 50.000000 0.000000
      vertex 25.927051 22.146830 0.000000
    endloop
  endfacet
  facet normal 0.000000 0.000000 -1.000000
    outer loop
      vertex 24.072949 22.146830 0.000000
      vertex 25.927051 22.146830 0.000000
      vertex 50.000000 20.000000 0.000000
    endloop
  endfacet
  facet normal 0.000000 0.000000 -1.000000
    outer loop
      vertex 44.072949 42.146830 0.000000
      vertex 25.927051 27.853170 0.000000
      vertex 42.572949 43.236644 0.000000
    endloop
  endfacet
  facet normal -0.000000 0.000000 -1.000000
    outer loop
      vertex 24.072949 27.853170 0.000000
      vertex 50.000000 70.000000 0.000000
      vertex 25.927051 27.853170 0.000000
    endloop
  endfacet
  facet normal -0.000000 0.000000 -1.000000
    outer loop
      vertex 27.427051 43.236644 0.000000
      vertex 50.000000 70.000000 0.000000
      vertex 22.572949 26.763356 0.000000
    endloop
  endfacet
  facet normal 0.000000 0.000000 -1.000000
    outer loop
      vertex 20.000000 50.000000 0.000000
      vertex 22.572949 26.763356 0.000000
      vertex 22.000000 25.000000 0.000000
    endloop
  endfacet
  facet normal 0.000000 0.000000 -1.000000
    outer loop
      vertex 45.927051 22.146830 0.000000
      vertex 50.000000 20.000000 0.000000
      vertex 44.072949 22.146830 0.000000
    endloop
  endfacet
  facet normal 0.000000 0.000000 -1.000000
    outer loop
      vertex 20.000000 50.000000 0.000000
      vertex 22.000000 45.000000 0.000000
      vertex 22.572949 26.763356 0.000000
    endloop
  endfacet
  facet normal -0.000000 0.000000 -1.000000
    outer loop
      vertex 24.072949 47.853170 0.000000
      vertex 50.000000 70.000000 0.000000
      vertex 25.927051 47.853170 0.000000
    endloop
  endfacet
  facet normal 0.000000 0.000000 -1.000000
    outer loop
      vertex 22.000000 45.000000 0.000000
      vertex 22.572949 43.236644 0.000000
      vertex 22.572949 26.763356 0.000000
    endloop
  endfacet
  facet normal -0.000000 0.000000 -1.000000
    outer loop
      vertex 25.927051 47.853170 0.000000
      vertex 50.000000 70.000000 0.000000
      vertex 27.427051 46.763356 0.000000
    endloop
  endfacet
  facet normal 0.000000 0.000000 -1.000000
    outer loop
      vertex 22.572949 43.236644 0.000000
      vertex 24.072949 42.146830 0.000000
      vertex 22.572949 26.763356 0.000000
    endloop
  endfacet
  facet normal -0.000000 0.000000 -1.000000
    outer loop
      vertex 27.427051 46.763356 0.000000
      vertex 50.000000 70.000000 0.000000
      vertex 28.000000 45.000000 0.000000
    endloop
  endfacet
  facet normal 0.000000 0.000000 -1.000000
    outer loop
      vertex 24.072949 42.146830 0.000000
      vertex 25.927051 42.146830 0.000000
      vertex 22.572949 26.763356 0.000000
    endloop
  endfacet
  facet normal -0.000000 0.000000 -1.000000
    outer loop
      vertex 25.927051 42.146830 0.000000
      vertex 27.427051 43.236644 0.000000
      vertex 22.572949 26.763356 0.000000
    endloop
  endfacet
  facet normal -0.000000 0.000000 -1.000000
    outer loop
      vertex 20.000000 50.000000 0.000000
      vertex 50.000000 70.000000 0.000000
      vertex 24.072949 47.853170 0.000000
    endloop
  endfacet
  facet normal 0.000000 0.000000 -1.000000
    outer loop
      vertex 20.000000 50.000000 0.000000
      vertex 24.072949 47.853170 0.000000
      vertex 22.572949 46.763356 0.000000
    endloop
  endfacet
  facet normal 0.000000 0.000000 -1.000000
    outer loop
      vertex 20.000000 50.000000 0.000000
      vertex 22.572949 46.763356 0.000000
      vertex 22.000000 45.000000 0.000000
    endloop
  endfacet
  facet normal 0.000000 0.000000 -1.000000
    outer loop
      vertex 44.072949 42.146830 0.000000
      vertex 28.000000 25.000000 0.000000
      vertex 27.427051 26.763356 0.000000
    endloop
  endfacet
  facet normal 0.000000 0.000000 -1.000000
    outer loop
      vertex 25.927051 22.146830 0.000000
      vertex 42.000000 25.000000 0.000000
      vertex 42.572949 23.236644 0.000000
    endloop
  endfacet
  facet normal -0.000000 0.000000 -1.000000
    outer loop
      vertex 25.927051 22.146830 0.000000
      vertex 42.572949 23.236644 0.000000
      vertex 44.072949 22.146830 0.000000
    endloop
  endfacet
  facet normal 0.000000 0.000000 -1.000000
    outer loop
      vertex 25.927051 22.146830 0.000000
      vertex 44.072949 22.146830 0.000000
      vertex 50.000000 20.000000 0.000000
    endloop
  endfacet
  facet normal 0.000000 0.000000 -1.000000
    outer loop
      vertex 47.427051 23.236644 0.000000
      vertex 50.000000 20.000000 0.000000
      vertex 45.927051 22.146830 0.000000
    endloop
  endfacet
  facet normal -0.000000 0.000000 -1.000000
    outer loop
      vertex 48.000000 25.000000 0.000000
      vertex 70.000000 50.000000 0.000000
      vertex 47.427051 23.236644 0.000000
    endloop
  endfacet
  facet normal -0.000000 0.000000 -1.000000
    outer loop
      vertex 44.072949 27.853170 0.000000
      vertex 70.000000 50.000000 0.000000
      vertex 45.927051 27.853170 0.000000
    endloop
  endfacet
  facet normal -0.000000 0.000000 -1.000000
    outer loop
      vertex 47.427051 26.763356 0.000000
      vertex 70.000000 50.000000 0.000000
      vertex 48.000000 25.000000 0.000000
    endloop
  endfacet
  facet normal -0.000000 0.000000 -1.000000
    outer loop
      vertex 45.927051 27.853170 0.000000
      vertex 70.000000 50.000000 0.000000
      vertex 47.427051 26.763356 0.000000
    endloop
  endfacet
  facet normal 0.000000 0.000000 -1.000000
    outer loop
      vertex 44.072949 42.146830 0.000000
      vertex 27.427051 26.763356 0.000000
      vertex 25.927051 27.853170 0.000000
    endloop
  endfacet
  facet normal 0.000000 0.000000 -1.000000
    outer loop
      vertex 25.927051 22.146830 0.000000
      vertex 70.000000 50.000000 0.000000
      vertex 44.072949 27.853170 0.000000
    endloop
  endfacet
  facet normal 0.000000 0.000000 -1.000000
    outer loop
      vertex 25.927051 22.146830 0.000000
      vertex 44.072949 27.853170 0.000000
      vertex 42.572949 26.763356 0.000000
    endloop
  endfacet
  facet normal 0.000000 0.000000 -1.000000
    outer loop
      vertex 25.927051 22.146830 0.000000
      vertex 42.572949 26.763356 0.000000
      vertex 42.000000 25.000000 0.000000
    endloop
  endfacet
  facet normal 0.000000 0.000000 -1.000000
    outer loop
      vertex 25.927051 27.853170 0.000000
      vertex 50.000000 70.000000 0.000000
      vertex 42.000000 45.000000 0.000000
    endloop
  endfacet
  facet normal 0.000000 0.000000 -1.000000
    outer loop
      vertex 25.927051 27.853170 0.000000
      vertex 42.000000 45.000000 0.000000
      vertex 42.572949 43.236644 0.000000
    endloop
  endfacet
  facet normal -0.000000 0.000000 -1.000000
    outer loop
      vertex 45.927051 47.853170 0.000000
      vertex 50.000000 50.000000 0.000000
      vertex 47.427051 46.763356 0.000000
    endloop
  endfacet
  facet normal 0.000000 0.000000 -1.000000
    outer loop
      vertex 28.000000 25.000000 0.000000
      vertex 44.072949 42.146830 0.000000
      vertex 45.927051 42.146830 0.000000
    endloop
  endfacet
  facet normal 0.000000 0.000000 -1.000000
    outer loop
      vertex 28.000000 25.000000 0.000000
      vertex 45.927051 42.146830 0.000000
      vertex 70.000000 50.000000 0.000000
    endloop
  endfacet
  facet normal -0.000000 0.000000 -1.000000
    outer loop
      vertex 48.000000 45.000000 0.000000
      vertex 50.000000 50.000000 0.000000
      vertex 47.427051 43.236644 0.000000
    endloop
  endfacet
  facet normal -0.000000 0.000000 -1.000000
    outer loop
      vertex 47.427051 46.763356 0.000000
      vertex 50.000000 50.000000 0.000000
      vertex 48.000000 45.000000 0.000000
    endloop
  endfacet
  facet normal -0.000000 0.000000 -1.000000
    outer loop
      vertex 47.427051 43.236644 0.000000
      vertex 70.000000 50.000000 0.000000
      vertex 45.927051 42.146830 0.000000
    endloop
  endfacet
  facet normal -0.000000 0.000000 -1.000000
    outer loop
      vertex 44.072949 47.853170 0.000000
      vertex 50.000000 70.000000 0.000000
      vertex 45.927051 47.853170 0.000000
    endloop
  endfacet
  facet normal 0.000000 0.000000 -1.000000
    outer loop
      vertex 42.572949 46.763356 0.000000
      vertex 50.000000 70.000000 0.000000
      vertex 44.072949 47.853170 0.000000
    endloop
  endfacet
  facet normal 0.000000 0.000000 -1.000000
    outer loop
      vertex 42.000000 45.000000 0.000000
      vertex 50.000000 70.000000 0.000000
      vertex 42.572949 46.763356 0.000000
    endloop
  endfacet
  facet normal 0.000000 0.000000 -1.000000
    outer loop
      vertex 20.000000 20.000000 0.000000
      vertex 50.000000 0.000000 0.000000
      vertex 20.000000 0.000000 0.000000
    endloop
  endfacet
  facet normal 0.000000 1.000000 0.000000
    outer loop
      vertex 20.000000 50.000000 7.000000
      vertex 20.000000 50.000000 0.000000
      vertex 0.000000 50.000000 7.000000
    endloop
  endfacet
  facet normal 0.000000 1.000000 -0.000000
    outer loop
      vertex 0.000000 50.000000 7.000000
      vertex 20.000000 50.000000 0.000000
      vertex 0.000000 50.000000 0.000000
    endloop
  endfacet
  facet normal 0.000000 -0.000000 1.000000
    outer loop
      vertex 0.000000 50.000000 7.000000
      vertex 0.000000 20.000000 7.000000
      vertex 20.000000 20.000000 7.000000
    endloop
  endfacet
  facet normal 0.000000 0.000000 1.000000
    outer loop
      vertex 20.000000 50.000000 7.000000
      vertex 0.000000 50.000000 7.000000
      vertex 20.000000 20.000000 7.000000
    endloop
  endfacet
  facet normal 0.000000 0.000000 1.000000
    outer loop
      vertex 20.000000 0.000000 7.000000
      vertex 30.500000 0.000000 7.000000
      vertex 20.000000 20.000000 7.000000
    endloop
  endfacet
  facet normal 0.000000 0.000000 1.000000
    outer loop
      vertex 27.427051 46.763356 7.000000
      vertex 28.000000 45.000000 7.000000
      vertex 30.500000 70.000000 7.000000
    endloop
  endfacet
  facet normal -0.000000 0.000000 1.000000
    outer loop
      vertex 22.572949 43.236644 7.000000
      vertex 20.000000 50.000000 7.000000
      vertex 20.000000 20.000000 7.000000
    endloop
  endfacet
  facet normal 0.000000 0.000000 1.000000
    outer loop
      vertex 30.500000 0.000000 7.000000
      vertex 22.572949 23.236644 7.000000
      vertex 20.000000 20.000000 7.000000
    endloop
  endfacet
  facet normal 0.000000 -0.000000 1.000000
    outer loop
      vertex 28.000000 25.000000 7.000000
      vertex 27.427051 23.236644 7.000000
      vertex 30.500000 0.000000 7.000000
    endloop
  endfacet
  facet normal -0.000000 0.000000 1.000000
    outer loop
      vertex 22.572949 23.236644 7.000000
      vertex 22.000000 25.000000 7.000000
      vertex 20.000000 20.000000 7.000000
    endloop
  endfacet
  facet normal 0.000000 0.000000 1.000000
    outer loop
      vertex 22.572949 46.763356 7.000000
      vertex 24.072949 47.853170 7.000000
      vertex 30.500000 70.000000 7.000000
    endloop
  endfacet
  facet normal 0.000000 0.000000 1.000000
    outer loop
      vertex 28.000000 45.000000 7.000000
      vertex 27.427051 43.236644 7.000000
      vertex 25.927051 27.853170 7.000000
    endloop
  endfacet
  facet normal 0.000000 0.000000 1.000000
    outer loop
      vertex 28.000000 25.000000 7.000000
      vertex 30.500000 70.000000 7.000000
      vertex 27.427051 26.763356 7.000000
    endloop
  endfacet
  facet normal 0.000000 -0.000000 1.000000
    outer loop
      vertex 27.427051 23.236644 7.000000
      vertex 25.927051 22.146830 7.000000
      vertex 30.500000 0.000000 7.000000
    endloop
  endfacet
  facet normal 0.000000 0.000000 1.000000
    outer loop
      vertex 30.500000 0.000000 7.000000
      vertex 30.500000 70.000000 7.000000
      vertex 28.000000 25.000000 7.000000
    endloop
  endfacet
  facet normal 0.000000 -0.000000 1.000000
    outer loop
      vertex 25.927051 22.146830 7.000000
      vertex 24.072949 22.146830 7.000000
      vertex 30.500000 0.000000 7.000000
    endloop
  endfacet
  facet normal -0.000000 0.000000 1.000000
    outer loop
      vertex 24.072949 42.146830 7.000000
      vertex 22.572949 43.236644 7.000000
      vertex 20.000000 20.000000 7.000000
    endloop
  endfacet
  facet normal 0.000000 0.000000 1.000000
    outer loop
      vertex 30.500000 0.000000 7.000000
      vertex 24.072949 22.146830 7.000000
      vertex 22.572949 23.236644 7.000000
    endloop
  endfacet
  facet normal -0.000000 -0.000000 1.000000
    outer loop
      vertex 22.000000 45.000000 7.000000
      vertex 20.000000 50.000000 7.000000
      vertex 22.572949 43.236644 7.000000
    endloop
  endfacet
  facet normal -0.000000 0.000000 1.000000
    outer loop
      vertex 22.572949 46.763356 7.000000
      vertex 20.000000 50.000000 7.000000
      vertex 22.000000 45.000000 7.000000
    endloop
  endfacet
  facet normal 0.000000 0.000000 1.000000
    outer loop
      vertex 24.072949 47.853170 7.000000
      vertex 25.927051 47.853170 7.000000
      vertex 30.500000 70.000000 7.000000
    endloop
  endfacet
  facet normal 0.000000 0.000000 1.000000
    outer loop
      vertex 30.500000 70.000000 7.000000
      vertex 20.000000 50.000000 7.000000
      vertex 22.572949 46.763356 7.000000
    endloop
  endfacet
  facet normal 0.000000 0.000000 1.000000
    outer loop
      vertex 25.927051 42.146830 7.000000
      vertex 20.000000 20.000000 7.000000
      vertex 22.000000 25.000000 7.000000
    endloop
  endfacet
  facet normal 0.000000 0.000000 1.000000
    outer loop
      vertex 27.427051 43.236644 7.000000
      vertex 25.927051 42.146830 7.000000
      vertex 24.072949 27.853170 7.000000
    endloop
  endfacet
  facet normal 0.000000 0.000000 1.000000
    outer loop
      vertex 27.427051 26.763356 7.000000
      vertex 28.000000 45.000000 7.000000
      vertex 25.927051 27.853170 7.000000
    endloop
  endfacet
  facet normal 0.000000 0.000000 1.000000
    outer loop
      vertex 27.427051 26.763356 7.000000
      vertex 30.500000 70.000000 7.000000
      vertex 28.000000 45.000000 7.000000
    endloop
  endfacet
  facet normal 0.000000 0.000000 1.000000
    outer loop
      vertex 25.927051 42.146830 7.000000
      vertex 24.072949 42.146830 7.000000
      vertex 20.000000 20.000000 7.000000
    endloop
  endfacet
  facet normal 0.000000 0.000000 1.000000
    outer loop
      vertex 27.427051 43.236644 7.000000
      vertex 24.072949 27.853170 7.000000
      vertex 25.927051 27.853170 7.000000
    endloop
  endfacet
  facet normal 0.000000 0.000000 1.000000
    outer loop
      vertex 25.927051 42.146830 7.000000
      vertex 22.000000 25.000000 7.000000
      vertex 22.572949 26.763356 7.000000
    endloop
  endfacet
  facet normal 0.000000 -0.000000 1.000000
    outer loop
      vertex 20.000000 70.000000 7.000000
      vertex 20.000000 50.000000 7.000000
      vertex 30.500000 70.000000 7.000000
    endloop
  endfacet
  facet normal 0.000000 0.000000 1.000000
    outer loop
      vertex 22.572949 26.763356 7.000000
      vertex 24.072949 27.853170 7.000000
      vertex 25.927051 42.146830 7.000000
    endloop
  endfacet
  facet normal 0.000000 0.000000 1.000000
    outer loop
      vertex 25.927051 47.853170 7.000000
      vertex 27.427051 46.763356 7.000000
      vertex 30.500000 70.000000 7.000000
    endloop
  endfacet
  facet normal -1.000000 0.000000 0.000000
    outer loop
      vertex 20.000000 20.000000 7.000000
      vertex 20.000000 20.000000 0.000000
      vertex 20.000000 0.000000 7.000000
    endloop
  endfacet
  facet normal -1.000000 0.000000 0.000000
    outer loop
      vertex 20.000000 0.000000 7.000000
      vertex 20.000000 20.000000 0.000000
      vertex 20.000000 0.000000 0.000000
    endloop
  endfacet
  facet normal 0.000000 -1.000000 0.000000
    outer loop
      vertex 36.390576 0.000000 2.720246
      vertex 20.000000 0.000000 0.000000
      vertex 50.000000 0.000000 0.000000
    endloop
  endfacet
  facet normal 0.000000 -1.000000 0.000000
    outer loop
      vertex 33.609424 0.000000 2.720246
      vertex 31.359424 0.000000 4.354966
      vertex 20.000000 0.000000 7.000000
    endloop
  endfacet
  facet normal 0.000000 -1.000000 0.000000
    outer loop
      vertex 50.000000 0.000000 7.000000
      vertex 39.500000 0.000000 7.000000
      vertex 50.000000 0.000000 0.000000
    endloop
  endfacet
  facet normal 0.000000 -1.000000 0.000000
    outer loop
      vertex 39.500000 0.000000 7.000000
      vertex 38.640576 0.000000 4.354966
      vertex 50.000000 0.000000 0.000000
    endloop
  endfacet
  facet normal 0.000000 -1.000000 0.000000
    outer loop
      vertex 33.609424 0.000000 2.720246
      vertex 20.000000 0.000000 0.000000
      vertex 36.390576 0.000000 2.720246
    endloop
  endfacet
  facet normal 0.000000 -1.000000 0.000000
    outer loop
      vertex 31.359424 0.000000 4.354966
      vertex 30.500000 0.000000 7.000000
      vertex 20.000000 0.000000 7.000000
    endloop
  endfacet
  facet normal 0.000000 -1.000000 0.000000
    outer loop
      vertex 20.000000 0.000000 7.000000
      vertex 20.000000 0.000000 0.000000
      vertex 33.609424 0.000000 2.720246
    endloop
  endfacet
  facet normal 0.000000 -1.000000 0.000000
    outer loop
      vertex 38.640576 0.000000 4.354966
      vertex 36.390576 0.000000 2.720246
      vertex 50.000000 0.000000 0.000000
    endloop
  endfacet
  facet normal 1.000000 0.000000 0.000000
    outer loop
      vertex 50.000000 20.000000 0.000000
      vertex 50.000000 20.000000 7.000000
      vertex 50.000000 0.000000 7.000000
    endloop
  endfacet
  facet normal 1.000000 0.000000 0.000000
    outer loop
      vertex 50.000000 0.000000 0.000000
      vertex 50.000000 20.000000 0.000000
      vertex 50.000000 0.000000 7.000000
    endloop
  endfacet
  facet normal 0.000000 -1.000000 0.000000
    outer loop
      vertex 70.000000 20.000000 0.000000
      vertex 70.000000 20.000000 7.000000
      vertex 50.000000 20.000000 7.000000
    endloop
  endfacet
  facet normal -0.000000 -1.000000 -0.000000
    outer loop
      vertex 50.000000 20.000000 0.000000
      vertex 70.000000 20.000000 0.000000
      vertex 50.000000 20.000000 7.000000
    endloop
  endfacet
  facet normal 1.000000 0.000000 -0.000000
    outer loop
      vertex 70.000000 20.000000 7.000000
      vertex 70.000000 20.000000 0.000000
      vertex 70.000000 50.000000 0.000000
    endloop
  endfacet
  facet normal 1.000000 0.000000 0.000000
    outer loop
      vertex 70.000000 50.000000 7.000000
      vertex 70.000000 20.000000 7.000000
      vertex 70.000000 50.000000 0.000000
    endloop
  endfacet
  facet normal 0.000000 1.000000 0.000000
    outer loop
      vertex 70.000000 50.000000 7.000000
      vertex 70.000000 50.000000 0.000000
      vertex 50.000000 50.000000 7.000000
    endloop
  endfacet
  facet normal 0.000000 1.000000 -0.000000
    outer loop
      vertex 50.000000 50.000000 7.000000
      vertex 70.000000 50.000000 0.000000
      vertex 50.000000 50.000000 0.000000
    endloop
  endfacet
  facet normal 1.000000 0.000000 0.000000
    outer loop
      vertex 50.000000 70.000000 0.000000
      vertex 50.000000 70.000000 7.000000
      vertex 50.000000 50.000000 7.000000
    endloop
  endfacet
  facet normal 1.000000 0.000000 0.000000
    outer loop
      vertex 50.000000 50.000000 0.000000
      vertex 50.000000 70.000000 0.000000
      vertex 50.000000 50.000000 7.000000
    endloop
  endfacet
  facet normal 0.000000 1.000000 0.000000
    outer loop
      vertex 31.359424 70.000000 4.354966
      vertex 20.000000 70.000000 7.000000
      vertex 30.500000 70.000000 7.000000
    endloop
  endfacet
  facet normal 0.000000 1.000000 0.000000
    outer loop
      vertex 20.000000 70.000000 0.000000
      vertex 20.000000 70.000000 7.000000
      vertex 33.609424 70.000000 2.720246
    endloop
  endfacet
  facet normal 0.000000 1.000000 0.000000
    outer loop
      vertex 20.000000 70.000000 0.000000
      vertex 33.609424 70.000000 2.720246
      vertex 50.000000 70.000000 0.000000
    endloop
  endfacet
  facet normal 0.000000 1.000000 -0.000000
    outer loop
      vertex 38.640576 70.000000 4.354966
      vertex 50.000000 70.000000 0.000000
      vertex 36.390576 70.000000 2.720246
    endloop
  endfacet
  facet normal 0.000000 1.000000 0.000000
    outer loop
      vertex 33.609424 70.000000 2.720246
      vertex 36.390576 70.000000 2.720246
      vertex 50.000000 70.000000 0.000000
    endloop
  endfacet
  facet normal 0.000000 1.000000 0.000000
    outer loop
      vertex 50.000000 70.000000 0.000000
      vertex 38.640576 70.000000 4.354966
      vertex 39.500000 70.000000 7.000000
    endloop
  endfacet
  facet normal 0.000000 1.000000 0.000000
    outer loop
      vertex 50.000000 70.000000 0.000000
      vertex 39.500000 70.000000 7.000000
      vertex 50.000000 70.000000 7.000000
    endloop
  endfacet
  facet normal 0.000000 1.000000 0.000000
    outer loop
      vertex 33.609424 70.000000 2.720246
      vertex 20.000000 70.000000 7.000000
      vertex 31.359424 70.000000 4.354966
    endloop
  endfacet
  facet normal -1.000000 0.000000 0.000000
    outer loop
      vertex 20.000000 70.000000 7.000000
      vertex 20.000000 70.000000 0.000000
      vertex 20.000000 50.000000 7.000000
    endloop
  endfacet
  facet normal -1.000000 0.000000 0.000000
    outer loop
      vertex 20.000000 50.000000 7.000000
      vertex 20.000000 70.000000 0.000000
      vertex 20.000000 50.000000 0.000000
    endloop
  endfacet
  facet normal 0.951057 0.309017 0.000000
    outer loop
      vertex 22.000000 25.000000 7.000000
      vertex 22.572949 23.236644 7.000000
      vertex 22.572949 23.236644 0.000000
    endloop
  endfacet
  facet normal 0.951057 0.309017 0.000000
    outer loop
      vertex 22.000000 25.000000 0.000000
      vertex 22.000000 25.000000 7.000000
      vertex 22.572949 23.236644 0.000000
    endloop
  endfacet
  facet normal 0.951057 -0.309017 0.000000
    outer loop
      vertex 22.572949 26.763356 0.000000
      vertex 22.572949 26.763356 7.000000
      vertex 22.000000 25.000000 7.000000
    endloop
  endfacet
  facet normal 0.951057 -0.309017 0.000000
    outer loop
      vertex 22.000000 25.000000 0.000000
      vertex 22.572949 26.763356 0.000000
      vertex 22.000000 25.000000 7.000000
    endloop
  endfacet
  facet normal 0.587785 -0.809017 0.000000
    outer loop
      vertex 24.072949 27.853170 0.000000
      vertex 24.072949 27.853170 7.000000
      vertex 22.572949 26.763356 7.000000
    endloop
  endfacet
  facet normal 0.587785 -0.809017 0.000000
    outer loop
      vertex 22.572949 26.763356 0.000000
      vertex 24.072949 27.853170 0.000000
      vertex 22.572949 26.763356 7.000000
    endloop
  endfacet
  facet normal 0.000000 -1.000000 0.000000
    outer loop
      vertex 25.927051 27.853170 0.000000
      vertex 25.927051 27.853170 7.000000
      vertex 24.072949 27.853170 7.000000
    endloop
  endfacet
  facet normal -0.000000 -1.000000 -0.000000
    outer loop
      vertex 24.072949 27.853170 0.000000
      vertex 25.927051 27.853170 0.000000
      vertex 24.072949 27.853170 7.000000
    endloop
  endfacet
  facet normal -0.587785 -0.809017 -0.000000
    outer loop
      vertex 27.427051 26.763356 0.000000
      vertex 27.427051 26.763356 7.000000
      vertex 25.927051 27.853170 7.000000
    endloop
  endfacet
  facet normal -0.587785 -0.809017 -0.000000
    outer loop
      vertex 25.927051 27.853170 0.000000
      vertex 27.427051 26.763356 0.000000
      vertex 25.927051 27.853170 7.000000
    endloop
  endfacet
  facet normal -0.951057 -0.309017 0.000000
    outer loop
      vertex 28.000000 25.000000 7.000000
      vertex 27.427051 26.763356 7.000000
      vertex 28.000000 25.000000 0.000000
    endloop
  endfacet
  facet normal -0.951057 -0.309017 0.000000
    outer loop
      vertex 28.000000 25.000000 0.000000
      vertex 27.427051 26.763356 7.000000
      vertex 27.427051 26.763356 0.000000
    endloop
  endfacet
  facet normal -0.951057 0.309017 0.000000
    outer loop
      vertex 28.000000 25.000000 7.000000
      vertex 28.000000 25.000000 0.000000
      vertex 27.427051 23.236644 7.000000
    endloop
  endfacet
  facet normal -0.951057 0.309017 0.000000
    outer loop
      vertex 27.427051 23.236644 7.000000
      vertex 28.000000 25.000000 0.000000
      vertex 27.427051 23.236644 0.000000
    endloop
  endfacet
  facet normal -0.587785 0.809017 0.000000
    outer loop
      vertex 27.427051 23.236644 7.000000
      vertex 27.427051 23.236644 0.000000
      vertex 25.927051 22.146830 7.000000
    endloop
  endfacet
  facet normal -0.587785 0.809017 0.000000
    outer loop
      vertex 25.927051 22.146830 7.000000
      vertex 27.427051 23.236644 0.000000
      vertex 25.927051 22.146830 0.000000
    endloop
  endfacet
  facet normal 0.000000 1.000000 0.000000
    outer loop
      vertex 25.927051 22.146830 7.000000
      vertex 25.927051 22.146830 0.000000
      vertex 24.072949 22.146830 7.000000
    endloop
  endfacet
  facet normal 0.000000 1.000000 -0.000000
    outer loop
      vertex 24.072949 22.146830 7.000000
      vertex 25.927051 22.146830 0.000000
      vertex 24.072949 22.146830 0.000000
    endloop
  endfacet
  facet normal 0.587785 0.809017 -0.000000
    outer loop
      vertex 24.072949 22.146830 7.000000
      vertex 24.072949 22.146830 0.000000
      vertex 22.572949 23.236644 7.000000
    endloop
  endfacet
  facet normal 0.587785 0.809017 -0.000000
    outer loop
      vertex 22.572949 23.236644 7.000000
      vertex 24.072949 22.146830 0.000000
      vertex 22.572949 23.236644 0.000000
    endloop
  endfacet
  facet normal 0.951057 0.309017 0.000000
    outer loop
      vertex 22.000000 45.000000 7.000000
      vertex 22.572949 43.236644 7.000000
      vertex 22.572949 43.236644 0.000000
    endloop
  endfacet
  facet normal 0.951057 0.309017 0.000000
    outer loop
      vertex 22.000000 45.000000 0.000000
      vertex 22.000000 45.000000 7.000000
      vertex 22.572949 43.236644 0.000000
    endloop
  endfacet
  facet normal 0.951057 -0.309017 0.000000
    outer loop
      vertex 22.572949 46.763356 0.000000
      vertex 22.572949 46.763356 7.000000
      vertex 22.000000 45.000000 7.000000
    endloop
  endfacet
  facet normal 0.951057 -0.309017 0.000000
    outer loop
      vertex 22.000000 45.000000 0.000000
      vertex 22.572949 46.763356 0.000000
      vertex 22.000000 45.000000 7.000000
    endloop
  endfacet
  facet normal 0.587785 -0.809017 0.000000
    outer loop
      vertex 24.072949 47.853170 0.000000
      vertex 24.072949 47.853170 7.000000
      vertex 22.572949 46.763356 7.000000
    endloop
  endfacet
  facet normal 0.587785 -0.809017 0.000000
    outer loop
      vertex 22.572949 46.763356 0.000000
      vertex 24.072949 47.853170 0.000000
      vertex 22.572949 46.763356 7.000000
    endloop
  endfacet
  facet normal 0.000000 -1.000000 0.000000
    outer loop
      vertex 25.927051 47.853170 0.000000
      vertex 25.927051 47.853170 7.000000
      vertex 24.072949 47.853170 7.000000
    endloop
  endfacet
  facet normal -0.000000 -1.000000 -0.000000
    outer loop
      vertex 24.072949 47.853170 0.000000
      vertex 25.927051 47.853170 0.000000
      vertex 24.072949 47.853170 7.000000
    endloop
  endfacet
  facet normal -0.587785 -0.809017 -0.000000
    outer loop
      vertex 27.427051 46.763356 0.000000
      vertex 27.427051 46.763356 7.000000
      vertex 25.927051 47.853170 7.000000
    endloop
  endfacet
  facet normal -0.587785 -0.809017 -0.000000
    outer loop
      vertex 25.927051 47.853170 0.000000
      vertex 27.427051 46.763356 0.000000
      vertex 25.927051 47.853170 7.000000
    endloop
  endfacet
  facet normal -0.951057 -0.309017 0.000000
    outer loop
      vertex 28.000000 45.000000 7.000000
      vertex 27.427051 46.763356 7.000000
      vertex 28.000000 45.000000 0.000000
    endloop
  endfacet
  facet normal -0.951057 -0.309017 0.000000
    outer loop
      vertex 28.000000 45.000000 0.000000
      vertex 27.427051 46.763356 7.000000
      vertex 27.427051 46.763356 0.000000
    endloop
  endfacet
  facet normal -0.951057 0.309017 0.000000
    outer loop
      vertex 28.000000 45.000000 7.000000
      vertex 28.000000 45.000000 0.000000
      vertex 27.427051 43.236644 7.000000
    endloop
  endfacet
  facet normal -0.951057 0.309017 0.000000
    outer loop
      vertex 27.427051 43.236644 7.000000
      vertex 28.000000 45.000000 0.000000
      vertex 27.427051 43.236644 0.000000
    endloop
  endfacet
  facet normal -0.587785 0.809017 0.000000
    outer loop
      vertex 27.427051 43.236644 7.000000
      vertex 27.427051 43.236644 0.000000
      vertex 25.927051 42.146830 7.000000
    endloop
  endfacet
  facet normal -0.587785 0.809017 0.000000
    outer loop
      vertex 25.927051 42.146830 7.000000
      vertex 27.427051 43.236644 0.000000
      vertex 25.927051 42.146830 0.000000
    endloop
  endfacet
  facet normal 0.000000 1.000000 0.000000
    outer loop
      vertex 25.927051 42.146830 7.000000
      vertex 25.927051 42.146830 0.000000
      vertex 24.072949 42.146830 7.000000
    endloop
  endfacet
  facet normal 0.000000 1.000000 -0.000000
    outer loop
      vertex 24.072949 42.146830 7.000000
      vertex 25.927051 42.146830 0.000000
      vertex 24.072949 42.146830 0.000000
    endloop
  endfacet
  facet normal 0.587785 0.809017 -0.000000
    outer loop
      vertex 24.072949 42.146830 7.000000
      vertex 24.072949 42.146830 0.000000
      vertex 22.572949 43.236644 7.000000
    endloop
  endfacet
  facet normal 0.587785 0.809017 -0.000000
    outer loop
      vertex 22.572949 43.236644 7.000000
      vertex 24.072949 42.146830 0.000000
      vertex 22.572949 43.236644 0.000000
    endloop
  endfacet
  facet normal 0.951057 -0.309017 0.000000
    outer loop
      vertex 42.572949 26.763356 0.000000
      vertex 42.572949 26.763356 7.000000
      vertex 42.000000 25.000000 7.000000
    endloop
  endfacet
  facet normal 0.951057 -0.309017 0.000000
    outer loop
      vertex 42.000000 25.000000 0.000000
      vertex 42.572949 26.763356 0.000000
      vertex 42.000000 25.000000 7.000000
    endloop
  endfacet
  facet normal 0.951057 0.309017 0.000000
    outer loop
      vertex 42.000000 25.000000 7.000000
      vertex 42.572949 23.236644 7.000000
      vertex 42.572949 23.236644 0.000000
    endloop
  endfacet
  facet normal 0.951057 0.309017 0.000000
    outer loop
      vertex 42.000000 25.000000 0.000000
      vertex 42.000000 25.000000 7.000000
      vertex 42.572949 23.236644 0.000000
    endloop
  endfacet
  facet normal 0.587785 -0.809017 0.000000
    outer loop
      vertex 44.072949 27.853170 0.000000
      vertex 44.072949 27.853170 7.000000
      vertex 42.572949 26.763356 7.000000
    endloop
  endfacet
  facet normal 0.587785 -0.809017 0.000000
    outer loop
      vertex 42.572949 26.763356 0.000000
      vertex 44.072949 27.853170 0.000000
      vertex 42.572949 26.763356 7.000000
    endloop
  endfacet
  facet normal 0.000000 -1.000000 0.000000
    outer loop
      vertex 45.927051 27.853170 0.000000
      vertex 45.927051 27.853170 7.000000
      vertex 44.072949 27.853170 7.000000
    endloop
  endfacet
  facet normal -0.000000 -1.000000 -0.000000
    outer loop
      vertex 44.072949 27.853170 0.000000
      vertex 45.927051 27.853170 0.000000
      vertex 44.072949 27.853170 7.000000
    endloop
  endfacet
  facet normal -0.587785 -0.809017 -0.000000
    outer loop
      vertex 47.427051 26.763356 0.000000
      vertex 47.427051 26.763356 7.000000
      vertex 45.927051 27.853170 7.000000
    endloop
  endfacet
  facet normal -0.587785 -0.809017 -0.000000
    outer loop
      vertex 45.927051 27.853170 0.000000
      vertex 47.427051 26.763356 0.000000
      vertex 45.927051 27.853170 7.000000
    endloop
  endfacet
  facet normal -0.951057 -0.309017 0.000000
    outer loop
      vertex 48.000000 25.000000 7.000000
      vertex 47.427051 26.763356 7.000000
      vertex 48.000000 25.000000 0.000000
    endloop
  endfacet
  facet normal -0.951057 -0.309017 0.000000
    outer loop
      vertex 48.000000 25.000000 0.000000
      vertex 47.427051 26.763356 7.000000
      vertex 47.427051 26.763356 0.000000
    endloop
  endfacet
  facet normal -0.951057 0.309017 0.000000
    outer loop
      vertex 48.000000 25.000000 7.000000
      vertex 48.000000 25.000000 0.000000
      vertex 47.427051 23.236644 7.000000
    endloop
  endfacet
  facet normal -0.951057 0.309017 0.000000
    outer loop
      vertex 47.427051 23.236644 7.000000
      vertex 48.000000 25.000000 0.000000
      vertex 47.427051 23.236644 0.000000
    endloop
  endfacet
  facet normal -0.587785 0.809017 0.000000
    outer loop
      vertex 47.427051 23.236644 7.000000
      vertex 47.427051 23.236644 0.000000
      vertex 45.927051 22.146830 7.000000
    endloop
  endfacet
  facet normal -0.587785 0.809017 0.000000
    outer loop
      vertex 45.927051 22.146830 7.000000
      vertex 47.427051 23.236644 0.000000
      vertex 45.927051 22.146830 0.000000
    endloop
  endfacet
  facet normal 0.000000 1.000000 0.000000
    outer loop
      vertex 45.927051 22.146830 7.000000
      vertex 45.927051 22.146830 0.000000
      vertex 44.072949 22.146830 7.000000
    endloop
  endfacet
  facet normal 0.000000 1.000000 -0.000000
    outer loop
      vertex 44.072949 22.146830 7.000000
      vertex 45.927051 22.146830 0.000000
      vertex 44.072949 22.146830 0.000000
    endloop
  endfacet
  facet normal 0.587785 0.809017 -0.000000
    outer loop
      vertex 44.072949 22.146830 7.000000
      vertex 44.072949 22.146830 0.000000
      vertex 42.572949 23.236644 7.000000
    endloop
  endfacet
  facet normal 0.587785 0.809017 -0.000000
    outer loop
      vertex 42.572949 23.236644 7.000000
      vertex 44.072949 22.146830 0.000000
      vertex 42.572949 23.236644 0.000000
    endloop
  endfacet
  facet normal 0.951057 0.309017 0.000000
    outer loop
      vertex 42.000000 45.000000 7.000000
      vertex 42.572949 43.236644 7.000000
      vertex 42.572949 43.236644 0.000000
    endloop
  endfacet
  facet normal 0.951057 0.309017 0.000000
    outer loop
      vertex 42.000000 45.000000 0.000000
      vertex 42.000000 45.000000 7.000000
      vertex 42.572949 43.236644 0.000000
    endloop
  endfacet
  facet normal 0.951057 -0.309017 0.000000
    outer loop
      vertex 42.572949 46.763356 0.000000
      vertex 42.572949 46.763356 7.000000
      vertex 42.000000 45.000000 7.000000
    endloop
  endfacet
  facet normal 0.951057 -0.309017 0.000000
    outer loop
      vertex 42.000000 45.000000 0.000000
      vertex 42.572949 46.763356 0.000000
      vertex 42.000000 45.000000 7.000000
    endloop
  endfacet
  facet normal 0.587785 -0.809017 0.000000
    outer loop
      vertex 44.072949 47.853170 0.000000
      vertex 44.072949 47.853170 7.000000
      vertex 42.572949 46.763356 7.000000
    endloop
  endfacet
  facet normal 0.587785 -0.809017 0.000000
    outer loop
      vertex 42.572949 46.763356 0.000000
      vertex 44.072949 47.853170 0.000000
      vertex 42.572949 46.763356 7.000000
    endloop
  endfacet
  facet normal 0.000000 -1.000000 0.000000
    outer loop
      vertex 45.927051 47.853170 0.000000
      vertex 45.927051 47.853170 7.000000
      vertex 44.072949 47.853170 7.000000
    endloop
  endfacet
  facet normal -0.000000 -1.000000 -0.000000
    outer loop
      vertex 44.072949 47.853170 0.000000
      vertex 45.927051 47.853170 0.000000
      vertex 44.072949 47.853170 7.000000
    endloop
  endfacet
  facet normal -0.587785 -0.809017 -0.000000
    outer loop
      vertex 47.427051 46.763356 0.000000
      vertex 47.427051 46.763356 7.000000
      vertex 45.927051 47.853170 7.000000
    endloop
  endfacet
  facet normal -0.587785 -0.809017 -0.000000
    outer loop
      vertex 45.927051 47.853170 0.000000
      vertex 47.427051 46.763356 0.000000
      vertex 45.927051 47.853170 7.000000
    endloop
  endfacet
  facet normal -0.951057 -0.309017 0.000000
    outer loop
      vertex 48.000000 45.000000 7.000000
      vertex 47.427051 46.763356 7.000000
      vertex 48.000000 45.000000 0.000000
    endloop
  endfacet
  facet normal -0.951057 -0.309017 0.000000
    outer loop
      vertex 48.000000 45.000000 0.000000
      vertex 47.427051 46.763356 7.000000
      vertex 47.427051 46.763356 0.000000
    endloop
  endfacet
  facet normal -0.951057 0.309017 0.000000
    outer loop
      vertex 48.000000 45.000000 7.000000
      vertex 48.000000 45.000000 0.000000
      vertex 47.427051 43.236644 7.000000
    endloop
  endfacet
  facet normal -0.951057 0.309017 0.000000
    outer loop
      vertex 47.427051 43.236644 7.000000
      vertex 48.000000 45.000000 0.000000
      vertex 47.427051 43.236644 0.000000
    endloop
  endfacet
  facet normal -0.587785 0.809017 0.000000
    outer loop
      vertex 47.427051 43.236644 7.000000
      vertex 47.427051 43.236644 0.000000
      vertex 45.927051 42.146830 7.000000
    endloop
  endfacet
  facet normal -0.587785 0.809017 0.000000
    outer loop
      vertex 45.927051 42.146830 7.000000
      vertex 47.427051 43.236644 0.000000
      vertex 45.927051 42.146830 0.000000
    endloop
  endfacet
  facet normal 0.000000 1.000000 0.000000
    outer loop
      vertex 45.927051 42.146830 7.000000
      vertex 45.927051 42.146830 0.000000
      vertex 44.072949 42.146830 7.000000
    endloop
  endfacet
  facet normal 0.000000 1.000000 -0.000000
    outer loop
      vertex 44.072949 42.146830 7.000000
      vertex 45.927051 42.146830 0.000000
      vertex 44.072949 42.146830 0.000000
    endloop
  endfacet
  facet normal 0.587785 0.809017 -0.000000
    outer loop
      vertex 44.072949 42.146830 7.000000
      vertex 44.072949 42.146830 0.000000
      vertex 42.572949 43.236644 7.000000
    endloop
  endfacet
  facet normal 0.587785 0.809017 -0.000000
    outer loop
      vertex 42.572949 43.236644 7.000000
      vertex 44.072949 42.146830 0.000000
      vertex 42.572949 43.236644 0.000000
    endloop
  endfacet
  facet normal 0.951056 -0.000000 0.309017
    outer loop
      vertex 31.359424 0.000000 4.354966
      vertex 31.359424 70.000000 4.354966
      vertex 30.500000 70.000000 7.000000
    endloop
  endfacet
  facet normal 0.951056 0.000000 0.309017
    outer loop
      vertex 30.500000 0.000000 7.000000
      vertex 31.359424 0.000000 4.354966
      vertex 30.500000 70.000000 7.000000
    endloop
  endfacet
  facet normal 0.587785 -0.000000 0.809017
    outer loop
      vertex 33.609424 0.000000 2.720246
      vertex 33.609424 70.000000 2.720246
      vertex 31.359424 70.000000 4.354966
    endloop
  endfacet
  facet normal 0.587785 -0.000000 0.809017
    outer loop
      vertex 31.359424 0.000000 4.354966
      vertex 33.609424 0.000000 2.720246
      vertex 31.359424 70.000000 4.354966
    endloop
  endfacet
  facet normal 0.000000 -0.000000 1.000000
    outer loop
      vertex 36.390576 0.000000 2.720246
      vertex 36.390576 70.000000 2.720246
      vertex 33.609424 70.000000 2.720246
    endloop
  endfacet
  facet normal 0.000000 -0.000000 1.000000
    outer loop
      vertex 33.609424 0.000000 2.720246
      vertex 36.390576 0.000000 2.720246
      vertex 33.609424 70.000000 2.720246
    endloop
  endfacet
  facet normal -0.587785 -0.000000 0.809017
    outer loop
      vertex 38.640576 0.000000 4.354966
      vertex 38.640576 70.000000 4.354966
      vertex 36.390576 70.000000 2.720246
    endloop
  endfacet
  facet normal -0.587785 -0.000000 0.809017
    outer loop
      vertex 36.390576 0.000000 2.720246
      vertex 38.640576 0.000000 4.354966
      vertex 36.390576 70.000000 2.720246
    endloop
  endfacet
  facet normal -0.951056 0.000000 0.309017
    outer loop
      vertex 39.500000 70.000000 7.000000
      vertex 38.640576 70.000000 4.354966
      vertex 39.500000 0.000000 7.000000
    endloop
  endfacet
  facet normal -0.951056 -0.000000 0.309017
    outer loop
      vertex 39.500000 0.000000 7.000000
      vertex 38.640576 70.000000 4.354966
      vertex 38.640576 0.000000 4.354966
    endloop
  endfacet
  facet normal -0.000000 0.000000 1.000000
    outer loop
      vertex 42.000000 25.000000 7.000000
      vertex 39.500000 70.000000 7.000000
      vertex 39.500000 0.000000 7.000000
    endloop
  endfacet
  facet normal 0.000000 0.000000 1.000000
    outer loop
      vertex 42.000000 25.000000 7.000000
      vertex 42.572949 26.763356 7.000000
      vertex 39.500000 70.000000 7.000000
    endloop
  endfacet
  facet normal -0.000000 0.000000 1.000000
    outer loop
      vertex 50.000000 0.000000 7.000000
      vertex 50.000000 20.000000 7.000000
      vertex 39.500000 0.000000 7.000000
    endloop
  endfacet
  facet normal -0.000000 0.000000 1.000000
    outer loop
      vertex 70.000000 20.000000 7.000000
      vertex 50.000000 50.000000 7.000000
      vertex 50.000000 20.000000 7.000000
    endloop
  endfacet
  facet normal -0.000000 0.000000 1.000000
    outer loop
      vertex 42.572949 23.236644 7.000000
      vertex 42.000000 25.000000 7.000000
      vertex 39.500000 0.000000 7.000000
    endloop
  endfacet
  facet normal 0.000000 0.000000 1.000000
    outer loop
      vertex 44.072949 27.853170 7.000000
      vertex 45.927051 27.853170 7.000000
      vertex 50.000000 50.000000 7.000000
    endloop
  endfacet
  facet normal -0.000000 -0.000000 1.000000
    outer loop
      vertex 42.000000 45.000000 7.000000
      vertex 39.500000 70.000000 7.000000
      vertex 42.572949 26.763356 7.000000
    endloop
  endfacet
  facet normal 0.000000 0.000000 1.000000
    outer loop
      vertex 45.927051 47.853170 7.000000
      vertex 47.427051 46.763356 7.000000
      vertex 50.000000 70.000000 7.000000
    endloop
  endfacet
  facet normal -0.000000 0.000000 1.000000
    outer loop
      vertex 44.072949 42.146830 7.000000
      vertex 42.572949 43.236644 7.000000
      vertex 42.572949 26.763356 7.000000
    endloop
  endfacet
  facet normal 0.000000 0.000000 1.000000
    outer loop
      vertex 47.427051 26.763356 7.000000
      vertex 50.000000 50.000000 7.000000
      vertex 45.927051 27.853170 7.000000
    endloop
  endfacet
  facet normal 0.000000 0.000000 1.000000
    outer loop
      vertex 50.000000 20.000000 7.000000
      vertex 50.000000 50.000000 7.000000
      vertex 47.427051 26.763356 7.000000
    endloop
  endfacet
  facet normal 0.000000 0.000000 1.000000
    outer loop
      vertex 45.927051 22.146830 7.000000
      vertex 44.072949 22.146830 7.000000
      vertex 39.500000 0.000000 7.000000
    endloop
  endfacet
  facet normal 0.000000 0.000000 1.000000
    outer loop
      vertex 50.000000 20.000000 7.000000
      vertex 47.427051 26.763356 7.000000
      vertex 48.000000 25.000000 7.000000
    endloop
  endfacet
  facet normal -0.000000 0.000000 1.000000
    outer loop
      vertex 50.000000 20.000000 7.000000
      vertex 47.427051 23.236644 7.000000
      vertex 39.500000 0.000000 7.000000
    endloop
  endfacet
  facet normal 0.000000 0.000000 1.000000
    outer loop
      vertex 47.427051 23.236644 7.000000
      vertex 45.927051 22.146830 7.000000
      vertex 39.500000 0.000000 7.000000
    endloop
  endfacet
  facet normal 0.000000 -0.000000 1.000000
    outer loop
      vertex 48.000000 25.000000 7.000000
      vertex 47.427051 23.236644 7.000000
      vertex 50.000000 20.000000 7.000000
    endloop
  endfacet
  facet normal -0.000000 0.000000 1.000000
    outer loop
      vertex 42.572949 43.236644 7.000000
      vertex 42.000000 45.000000 7.000000
      vertex 42.572949 26.763356 7.000000
    endloop
  endfacet
  facet normal 0.000000 0.000000 1.000000
    outer loop
      vertex 42.572949 46.763356 7.000000
      vertex 44.072949 47.853170 7.000000
      vertex 50.000000 70.000000 7.000000
    endloop
  endfacet
  facet normal 0.000000 0.000000 1.000000
    outer loop
      vertex 50.000000 70.000000 7.000000
      vertex 39.500000 70.000000 7.000000
      vertex 42.572949 46.763356 7.000000
    endloop
  endfacet
  facet normal 0.000000 0.000000 1.000000
    outer loop
      vertex 42.000000 45.000000 7.000000
      vertex 42.572949 46.763356 7.000000
      vertex 39.500000 70.000000 7.000000
    endloop
  endfacet
  facet normal 0.000000 0.000000 1.000000
    outer loop
      vertex 50.000000 70.000000 7.000000
      vertex 44.072949 47.853170 7.000000
      vertex 45.927051 47.853170 7.000000
    endloop
  endfacet
  facet normal 0.000000 0.000000 1.000000
    outer loop
      vertex 45.927051 42.146830 7.000000
      vertex 44.072949 42.146830 7.000000
      vertex 42.572949 26.763356 7.000000
    endloop
  endfacet
  facet normal -0.000000 0.000000 1.000000
    outer loop
      vertex 50.000000 50.000000 7.000000
      vertex 50.000000 70.000000 7.000000
      vertex 47.427051 46.763356 7.000000
    endloop
  endfacet
  facet normal 0.000000 0.000000 1.000000
    outer loop
      vertex 50.000000 50.000000 7.000000
      vertex 48.000000 45.000000 7.000000
      vertex 44.072949 27.853170 7.000000
    endloop
  endfacet
  facet normal 0.000000 0.000000 1.000000
    outer loop
      vertex 50.000000 50.000000 7.000000
      vertex 47.427051 46.763356 7.000000
      vertex 48.000000 45.000000 7.000000
    endloop
  endfacet
  facet normal 0.000000 0.000000 1.000000
    outer loop
      vertex 48.000000 45.000000 7.000000
      vertex 47.427051 43.236644 7.000000
      vertex 44.072949 27.853170 7.000000
    endloop
  endfacet
  facet normal 0.000000 0.000000 1.000000
    outer loop
      vertex 42.572949 26.763356 7.000000
      vertex 44.072949 27.853170 7.000000
      vertex 45.927051 42.146830 7.000000
    endloop
  endfacet
  facet normal 0.000000 0.000000 1.000000
    outer loop
      vertex 47.427051 43.236644 7.000000
      vertex 45.927051 42.146830 7.000000
      vertex 44.072949 27.853170 7.000000
    endloop
  endfacet
  facet normal 0.000000 0.000000 1.000000
    outer loop
      vertex 70.000000 50.000000 7.000000
      vertex 50.000000 50.000000 7.000000
      vertex 70.000000 20.000000 7.000000
    endloop
  endfacet
  facet normal -0.000000 0.000000 1.000000
    outer loop
      vertex 44.072949 22.146830 7.000000
      vertex 42.572949 23.236644 7.000000
      vertex 39.500000 0.000000 7.000000
    endloop
  endfacet
endsolid OpenSCAD_Model
