solid OpenSCAD_Model
  facet normal -1.000000 -0.000000 -0.000000
    outer loop
      vertex 0.000000 0.000000 0.000000
      vertex 0.000000 0.000000 9.000000
      vertex 0.000000 40.000000 0.000000
    endloop
  endfacet
  facet normal -1.000000 0.000000 0.000000
    outer loop
      vertex 0.000000 40.000000 0.000000
      vertex 0.000000 0.000000 9.000000
      vertex 0.000000 40.000000 9.000000
    endloop
  endfacet
  facet normal 0.000000 -1.000000 0.000000
    outer loop
      vertex 21.390576 0.000000 4.720246
      vertex 0.000000 0.000000 0.000000
      vertex 80.000000 0.000000 0.000000
    endloop
  endfacet
  facet normal 0.000000 -1.000000 0.000000
    outer loop
      vertex 80.000000 0.000000 9.000000
      vertex 54.500000 0.000000 9.000000
      vertex 80.000000 0.000000 0.000000
    endloop
  endfacet
  facet normal 0.000000 -1.000000 0.000000
    outer loop
      vertex 54.500000 0.000000 9.000000
      vertex 53.640576 0.000000 6.354966
      vertex 80.000000 0.000000 0.000000
    endloop
  endfacet
  facet normal 0.000000 -1.000000 0.000000
    outer loop
      vertex 24.500000 0.000000 9.000000
      vertex 48.609424 0.000000 4.720246
      vertex 46.359424 0.000000 6.354966
    endloop
  endfacet
  facet normal 0.000000 -1.000000 0.000000
    outer loop
      vertex 53.640576 0.000000 6.354966
      vertex 51.390576 0.000000 4.720246
      vertex 80.000000 0.000000 0.000000
    endloop
  endfacet
  facet normal 0.000000 -1.000000 0.000000
    outer loop
      vertex 51.390576 0.000000 4.720246
      vertex 48.609424 0.000000 4.720246
      vertex 80.000000 0.000000 0.000000
    endloop
  endfacet
  facet normal 0.000000 -1.000000 0.000000
    outer loop
      vertex 23.640576 0.000000 6.354966
      vertex 21.390576 0.000000 4.720246
      vertex 80.000000 0.000000 0.000000
    endloop
  endfacet
  facet normal 0.000000 -1.000000 0.000000
    outer loop
      vertex 24.500000 0.000000 9.000000
      vertex 23.640576 0.000000 6.354966
      vertex 48.609424 0.000000 4.720246
    endloop
  endfacet
  facet normal 0.000000 -1.000000 0.000000
    outer loop
      vertex 48.609424 0.000000 4.720246
      vertex 23.640576 0.000000 6.354966
      vertex 80.000000 0.000000 0.000000
    endloop
  endfacet
  facet normal 0.000000 -1.000000 0.000000
    outer loop
      vertex 18.609424 0.000000 4.720246
      vertex 0.000000 0.000000 0.000000
      vertex 21.390576 0.000000 4.720246
    endloop
  endfacet
  facet normal 0.000000 -1.000000 0.000000
    outer loop
      vertex 16.359424 0.000000 6.354966
      vertex 15.500000 0.000000 9.000000
      vertex 0.000000 0.000000 9.000000
    endloop
  endfacet
  facet normal 0.000000 -1.000000 0.000000
    outer loop
      vertex 0.000000 0.000000 9.000000
      vertex 0.000000 0.000000 0.000000
      vertex 18.609424 0.000000 4.720246
    endloop
  endfacet
  facet normal 0.000000 -1.000000 0.000000
    outer loop
      vertex 18.609424 0.000000 4.720246
      vertex 16.359424 0.000000 6.354966
      vertex 0.000000 0.000000 9.000000
    endloop
  endfacet
  facet normal 0.000000 -1.000000 0.000000
    outer loop
      vertex 46.359424 0.000000 6.354966
      vertex 45.500000 0.000000 9.000000
      vertex 24.500000 0.000000 9.000000
    endloop
  endfacet
  facet normal -0.000000 -0.000000 -1.000000
    outer loop
      vertex 21.246980 21.563663 0.000000
      vertex 0.000000 40.000000 0.000000
      vertex 80.000000 0.000000 0.000000
    endloop
  endfacet
  facet normal 0.000000 -0.000000 -1.000000
    outer loop
      vertex 36.246980 31.563663 0.000000
      vertex 0.000000 40.000000 0.000000
      vertex 80.000000 40.000000 0.000000
    endloop
  endfacet
  facet normal 0.000000 0.000000 -1.000000
    outer loop
      vertex 71.750144 19.554958 0.000000
      vertex 72.832233 18.198062 0.000000
      vertex 67.400000 13.460039 0.000000
    endloop
  endfacet
  facet normal 0.000000 0.000000 -1.000000
    outer loop
      vertex 80.000000 0.000000 0.000000
      vertex 0.000000 40.000000 0.000000
      vertex 80.000000 2.806003 0.000000
    endloop
  endfacet
  facet normal 0.000000 -0.000000 -1.000000
    outer loop
      vertex 0.000000 0.000000 0.000000
      vertex 0.000000 40.000000 0.000000
      vertex 18.198062 20.867767 0.000000
    endloop
  endfacet
  facet normal 0.000000 0.000000 -1.000000
    outer loop
      vertex 0.000000 0.000000 0.000000
      vertex 18.198062 20.867767 0.000000
      vertex 18.198062 19.132233 0.000000
    endloop
  endfacet
  facet normal 0.000000 0.000000 -1.000000
    outer loop
      vertex 0.000000 0.000000 0.000000
      vertex 18.198062 19.132233 0.000000
      vertex 19.554958 18.050144 0.000000
    endloop
  endfacet
  facet normal -0.000000 -0.000000 -1.000000
    outer loop
      vertex 36.246980 11.563663 0.000000
      vertex 19.554958 18.050144 0.000000
      vertex 80.000000 0.000000 0.000000
    endloop
  endfacet
  facet normal 0.000000 0.000000 -1.000000
    outer loop
      vertex 22.000000 20.000000 0.000000
      vertex 80.000000 0.000000 0.000000
      vertex 21.246980 18.436337 0.000000
    endloop
  endfacet
  facet normal 0.000000 -0.000000 -1.000000
    outer loop
      vertex 33.198062 10.867767 0.000000
      vertex 19.554958 18.050144 0.000000
      vertex 34.554958 11.949856 0.000000
    endloop
  endfacet
  facet normal -0.000000 -0.000000 -1.000000
    outer loop
      vertex 19.554958 21.949856 0.000000
      vertex 0.000000 40.000000 0.000000
      vertex 21.246980 21.563663 0.000000
    endloop
  endfacet
  facet normal -0.000000 -0.000000 -1.000000
    outer loop
      vertex 22.000000 20.000000 0.000000
      vertex 21.246980 21.563663 0.000000
      vertex 80.000000 0.000000 0.000000
    endloop
  endfacet
  facet normal 0.000000 -0.000000 -1.000000
    outer loop
      vertex 18.198062 20.867767 0.000000
      vertex 0.000000 40.000000 0.000000
      vertex 19.554958 21.949856 0.000000
    endloop
  endfacet
  facet normal 0.000000 0.000000 -1.000000
    outer loop
      vertex 0.000000 0.000000 0.000000
      vertex 19.554958 18.050144 0.000000
      vertex 33.198062 10.867767 0.000000
    endloop
  endfacet
  facet normal 0.000000 0.000000 -1.000000
    outer loop
      vertex 0.000000 0.000000 0.000000
      vertex 33.198062 10.867767 0.000000
      vertex 33.198062 9.132233 0.000000
    endloop
  endfacet
  facet normal 0.000000 0.000000 -1.000000
    outer loop
      vertex 0.000000 0.000000 0.000000
      vertex 33.198062 9.132233 0.000000
      vertex 34.554958 8.050144 0.000000
    endloop
  endfacet
  facet normal -0.000000 0.000000 -1.000000
    outer loop
      vertex 0.000000 0.000000 0.000000
      vertex 34.554958 8.050144 0.000000
      vertex 80.000000 0.000000 0.000000
    endloop
  endfacet
  facet normal -0.000000 0.000000 -1.000000
    outer loop
      vertex 34.554958 8.050144 0.000000
      vertex 36.246980 8.436337 0.000000
      vertex 80.000000 0.000000 0.000000
    endloop
  endfacet
  facet normal 0.000000 0.000000 -1.000000
    outer loop
      vertex 37.000000 10.000000 0.000000
      vertex 80.000000 0.000000 0.000000
      vertex 36.246980 8.436337 0.000000
    endloop
  endfacet
  facet normal 0.000000 -0.000000 -1.000000
    outer loop
      vertex 33.198062 30.867767 0.000000
      vertex 0.000000 40.000000 0.000000
      vertex 34.554958 31.949856 0.000000
    endloop
  endfacet
  facet normal -0.000000 -0.000000 -1.000000
    outer loop
      vertex 34.554958 11.949856 0.000000
      vertex 19.554958 18.050144 0.000000
      vertex 36.246980 11.563663 0.000000
    endloop
  endfacet
  facet normal -0.000000 -0.000000 -1.000000
    outer loop
      vertex 37.000000 10.000000 0.000000
      vertex 36.246980 11.563663 0.000000
      vertex 80.000000 0.000000 0.000000
    endloop
  endfacet
  facet normal 0.000000 0.000000 -1.000000
    outer loop
      vertex 34.554958 28.050144 0.000000
      vertex 0.000000 40.000000 0.000000
      vertex 33.198062 29.132233 0.000000
    endloop
  endfacet
  facet normal 0.000000 0.000000 -1.000000
    outer loop
      vertex 51.246980 21.563663 0.000000
      vertex 0.000000 40.000000 0.000000
      vertex 34.554958 28.050144 0.000000
    endloop
  endfacet
  facet normal 0.000000 0.000000 -1.000000
    outer loop
      vertex 67.400000 26.539961 0.000000
      vertex 71.750144 19.554958 0.000000
      vertex 67.400000 13.460039 0.000000
    endloop
  endfacet
  facet normal 0.000000 0.000000 -1.000000
    outer loop
      vertex 33.198062 29.132233 0.000000
      vertex 0.000000 40.000000 0.000000
      vertex 33.198062 30.867767 0.000000
    endloop
  endfacet
  facet normal -0.000000 -0.000000 -1.000000
    outer loop
      vertex 34.554958 31.949856 0.000000
      vertex 0.000000 40.000000 0.000000
      vertex 36.246980 31.563663 0.000000
    endloop
  endfacet
  facet normal 0.000000 -0.000000 -1.000000
    outer loop
      vertex 61.100000 26.539961 0.000000
      vertex 36.246980 31.563663 0.000000
      vertex 80.000000 40.000000 0.000000
    endloop
  endfacet
  facet normal 0.000000 0.000000 -1.000000
    outer loop
      vertex 73.700000 22.000000 0.000000
      vertex 80.000000 20.000000 0.000000
      vertex 75.263663 21.246980 0.000000
    endloop
  endfacet
  facet normal 0.000000 -0.000000 -1.000000
    outer loop
      vertex 48.198062 20.867767 0.000000
      vertex 0.000000 40.000000 0.000000
      vertex 49.554958 21.949856 0.000000
    endloop
  endfacet
  facet normal 0.000000 0.000000 -1.000000
    outer loop
      vertex 48.198062 19.132233 0.000000
      vertex 0.000000 40.000000 0.000000
      vertex 48.198062 20.867767 0.000000
    endloop
  endfacet
  facet normal 0.000000 0.000000 -1.000000
    outer loop
      vertex 49.554958 18.050144 0.000000
      vertex 0.000000 40.000000 0.000000
      vertex 48.198062 19.132233 0.000000
    endloop
  endfacet
  facet normal 0.000000 0.000000 -1.000000
    outer loop
      vertex 80.000000 2.806003 0.000000
      vertex 0.000000 40.000000 0.000000
      vertex 49.554958 18.050144 0.000000
    endloop
  endfacet
  facet normal 0.000000 0.000000 -1.000000
    outer loop
      vertex 67.400000 26.539961 0.000000
      vertex 73.700000 22.000000 0.000000
      vertex 72.136337 21.246980 0.000000
    endloop
  endfacet
  facet normal 0.000000 -0.000000 -1.000000
    outer loop
      vertex 51.246980 21.563663 0.000000
      vertex 36.246980 31.563663 0.000000
      vertex 61.100000 26.539961 0.000000
    endloop
  endfacet
  facet normal 0.000000 0.000000 -1.000000
    outer loop
      vertex 51.246980 18.436337 0.000000
      vertex 80.000000 2.806003 0.000000
      vertex 49.554958 18.050144 0.000000
    endloop
  endfacet
  facet normal 0.000000 0.000000 -1.000000
    outer loop
      vertex 67.400000 26.539961 0.000000
      vertex 72.136337 21.246980 0.000000
      vertex 71.750144 19.554958 0.000000
    endloop
  endfacet
  facet normal -0.000000 -0.000000 -1.000000
    outer loop
      vertex 49.554958 21.949856 0.000000
      vertex 0.000000 40.000000 0.000000
      vertex 51.246980 21.563663 0.000000
    endloop
  endfacet
  facet normal 0.000000 0.000000 -1.000000
    outer loop
      vertex 72.832233 18.198062 0.000000
      vertex 80.000000 10.593699 0.000000
      vertex 67.400000 13.460039 0.000000
    endloop
  endfacet
  facet normal 0.000000 0.000000 -1.000000
    outer loop
      vertex 67.400000 26.539961 0.000000
      vertex 80.000000 20.000000 0.000000
      vertex 73.700000 22.000000 0.000000
    endloop
  endfacet
  facet normal 0.000000 0.000000 -1.000000
    outer loop
      vertex 61.100000 13.460039 0.000000
      vertex 52.000000 20.000000 0.000000
      vertex 51.246980 21.563663 0.000000
    endloop
  endfacet
  facet normal 0.000000 -0.000000 -1.000000
    outer loop
      vertex 67.400000 26.539961 0.000000
      vertex 61.100000 26.539961 0.000000
      vertex 80.000000 40.000000 0.000000
    endloop
  endfacet
  facet normal 0.000000 0.000000 -1.000000
    outer loop
      vertex 80.000000 2.806003 0.000000
      vertex 51.246980 18.436337 0.000000
      vertex 61.100000 13.460039 0.000000
    endloop
  endfacet
  facet normal 0.000000 0.000000 -1.000000
    outer loop
      vertex 51.246980 21.563663 0.000000
      vertex 37.000000 30.000000 0.000000
      vertex 36.246980 31.563663 0.000000
    endloop
  endfacet
  facet normal 0.000000 0.000000 -1.000000
    outer loop
      vertex 51.246980 21.563663 0.000000
      vertex 36.246980 28.436337 0.000000
      vertex 37.000000 30.000000 0.000000
    endloop
  endfacet
  facet normal 0.000000 0.000000 -1.000000
    outer loop
      vertex 80.000000 2.806003 0.000000
      vertex 67.400000 13.460039 0.000000
      vertex 80.000000 10.593699 0.000000
    endloop
  endfacet
  facet normal 0.000000 0.000000 -1.000000
    outer loop
      vertex 75.649856 19.554958 0.000000
      vertex 80.000000 16.044154 0.000000
      vertex 74.567767 18.198062 0.000000
    endloop
  endfacet
  facet normal 0.000000 0.000000 -1.000000
    outer loop
      vertex 80.000000 20.000000 0.000000
      vertex 67.400000 26.539961 0.000000
      vertex 80.000000 40.000000 0.000000
    endloop
  endfacet
  facet normal 0.000000 0.000000 -1.000000
    outer loop
      vertex 52.000000 20.000000 0.000000
      vertex 61.100000 13.460039 0.000000
      vertex 51.246980 18.436337 0.000000
    endloop
  endfacet
  facet normal 0.000000 -0.000000 -1.000000
    outer loop
      vertex 61.100000 13.460039 0.000000
      vertex 51.246980 21.563663 0.000000
      vertex 61.100000 26.539961 0.000000
    endloop
  endfacet
  facet normal 0.000000 0.000000 -1.000000
    outer loop
      vertex 75.263663 21.246980 0.000000
      vertex 80.000000 20.000000 0.000000
      vertex 75.649856 19.554958 0.000000
    endloop
  endfacet
  facet normal 0.000000 -0.000000 -1.000000
    outer loop
      vertex 80.000000 16.044154 0.000000
      vertex 75.649856 19.554958 0.000000
      vertex 80.000000 20.000000 0.000000
    endloop
  endfacet
  facet normal 0.000000 0.000000 -1.000000
    outer loop
      vertex 51.246980 21.563663 0.000000
      vertex 34.554958 28.050144 0.000000
      vertex 36.246980 28.436337 0.000000
    endloop
  endfacet
  facet normal 0.000000 0.000000 -1.000000
    outer loop
      vertex 21.246980 18.436337 0.000000
      vertex 80.000000 0.000000 0.000000
      vertex 19.554958 18.050144 0.000000
    endloop
  endfacet
  facet normal 0.000000 0.000000 -1.000000
    outer loop
      vertex 74.567767 18.198062 0.000000
      vertex 80.000000 16.044154 0.000000
      vertex 72.832233 18.198062 0.000000
    endloop
  endfacet
  facet normal 0.000000 0.000000 -1.000000
    outer loop
      vertex 72.832233 18.198062 0.000000
      vertex 80.000000 16.044154 0.000000
      vertex 80.000000 10.593699 0.000000
    endloop
  endfacet
  facet normal 0.000000 0.000000 -1.000000
    outer loop
      vertex 67.400000 13.460039 0.000000
      vertex 80.000000 2.806003 0.000000
      vertex 61.100000 13.460039 0.000000
    endloop
  endfacet
  facet normal 0.000000 1.000000 -0.000000
    outer loop
      vertex 23.640576 40.000000 6.354966
      vertex 80.000000 40.000000 0.000000
      vertex 21.390576 40.000000 4.720246
    endloop
  endfacet
  facet normal 0.000000 1.000000 0.000000
    outer loop
      vertex 0.000000 40.000000 0.000000
      vertex 0.000000 40.000000 9.000000
      vertex 16.359424 40.000000 6.354966
    endloop
  endfacet
  facet normal 0.000000 1.000000 -0.000000
    outer loop
      vertex 24.500000 40.000000 9.000000
      vertex 48.609424 40.000000 4.720246
      vertex 23.640576 40.000000 6.354966
    endloop
  endfacet
  facet normal 0.000000 1.000000 0.000000
    outer loop
      vertex 0.000000 40.000000 0.000000
      vertex 16.359424 40.000000 6.354966
      vertex 18.609424 40.000000 4.720246
    endloop
  endfacet
  facet normal 0.000000 1.000000 0.000000
    outer loop
      vertex 0.000000 40.000000 0.000000
      vertex 18.609424 40.000000 4.720246
      vertex 80.000000 40.000000 0.000000
    endloop
  endfacet
  facet normal 0.000000 1.000000 0.000000
    outer loop
      vertex 18.609424 40.000000 4.720246
      vertex 21.390576 40.000000 4.720246
      vertex 80.000000 40.000000 0.000000
    endloop
  endfacet
  facet normal 0.000000 1.000000 0.000000
    outer loop
      vertex 48.609424 40.000000 4.720246
      vertex 24.500000 40.000000 9.000000
      vertex 46.359424 40.000000 6.354966
    endloop
  endfacet
  facet normal 0.000000 1.000000 0.000000
    outer loop
      vertex 46.359424 40.000000 6.354966
      vertex 24.500000 40.000000 9.000000
      vertex 45.500000 40.000000 9.000000
    endloop
  endfacet
  facet normal 0.000000 1.000000 -0.000000
    outer loop
      vertex 51.390576 40.000000 4.720246
      vertex 80.000000 40.000000 0.000000
      vertex 48.609424 40.000000 4.720246
    endloop
  endfacet
  facet normal 0.000000 1.000000 -0.000000
    outer loop
      vertex 53.640576 40.000000 6.354966
      vertex 80.000000 40.000000 0.000000
      vertex 51.390576 40.000000 4.720246
    endloop
  endfacet
  facet normal 0.000000 1.000000 -0.000000
    outer loop
      vertex 54.500000 40.000000 9.000000
      vertex 80.000000 40.000000 0.000000
      vertex 53.640576 40.000000 6.354966
    endloop
  endfacet
  facet normal 0.000000 1.000000 0.000000
    outer loop
      vertex 80.000000 40.000000 0.000000
      vertex 54.500000 40.000000 9.000000
      vertex 80.000000 40.000000 9.000000
    endloop
  endfacet
  facet normal 0.000000 1.000000 0.000000
    outer loop
      vertex 16.359424 40.000000 6.354966
      vertex 0.000000 40.000000 9.000000
      vertex 15.500000 40.000000 9.000000
    endloop
  endfacet
  facet normal -0.000000 1.000000 -0.000000
    outer loop
      vertex 48.609424 40.000000 4.720246
      vertex 80.000000 40.000000 0.000000
      vertex 23.640576 40.000000 6.354966
    endloop
  endfacet
  facet normal 0.000000 -0.000000 1.000000
    outer loop
      vertex 0.000000 40.000000 9.000000
      vertex 0.000000 0.000000 9.000000
      vertex 15.500000 0.000000 9.000000
    endloop
  endfacet
  facet normal 0.000000 0.000000 1.000000
    outer loop
      vertex 15.500000 40.000000 9.000000
      vertex 0.000000 40.000000 9.000000
      vertex 15.500000 0.000000 9.000000
    endloop
  endfacet
  facet normal 0.951056 -0.000000 0.309017
    outer loop
      vertex 16.359424 0.000000 6.354966
      vertex 16.359424 40.000000 6.354966
      vertex 15.500000 40.000000 9.000000
    endloop
  endfacet
  facet normal 0.951056 0.000000 0.309017
    outer loop
      vertex 15.500000 0.000000 9.000000
      vertex 16.359424 0.000000 6.354966
      vertex 15.500000 40.000000 9.000000
    endloop
  endfacet
  facet normal 0.587785 -0.000000 0.809017
    outer loop
      vertex 18.609424 0.000000 4.720246
      vertex 18.609424 40.000000 4.720246
      vertex 16.359424 40.000000 6.354966
    endloop
  endfacet
  facet normal 0.587785 -0.000000 0.809017
    outer loop
      vertex 16.359424 0.000000 6.354966
      vertex 18.609424 0.000000 4.720246
      vertex 16.359424 40.000000 6.354966
    endloop
  endfacet
  facet normal 0.000000 -0.000000 1.000000
    outer loop
      vertex 18.786475 19.118322 4.720246
      vertex 18.609424 0.000000 4.720246
      vertex 21.390576 0.000000 4.720246
    endloop
  endfacet
  facet normal -0.000000 -0.000000 1.000000
    outer loop
      vertex 21.390576 0.000000 4.720246
      vertex 21.390576 19.849391 4.720246
      vertex 20.463525 18.573415 4.720246
    endloop
  endfacet
  facet normal 0.000000 -0.000000 1.000000
    outer loop
      vertex 18.786475 20.881678 4.720246
      vertex 18.609424 40.000000 4.720246
      vertex 18.786475 19.118322 4.720246
    endloop
  endfacet
  facet normal 0.000000 -0.000000 1.000000
    outer loop
      vertex 18.786475 19.118322 4.720246
      vertex 21.390576 0.000000 4.720246
      vertex 20.463525 18.573415 4.720246
    endloop
  endfacet
  facet normal 0.000000 -0.000000 1.000000
    outer loop
      vertex 20.463525 21.426585 4.720246
      vertex 21.390576 40.000000 4.720246
      vertex 18.786475 20.881678 4.720246
    endloop
  endfacet
  facet normal -0.000000 -0.000000 1.000000
    outer loop
      vertex 21.390576 20.150609 4.720246
      vertex 21.390576 40.000000 4.720246
      vertex 20.463525 21.426585 4.720246
    endloop
  endfacet
  facet normal 0.000000 -0.000000 1.000000
    outer loop
      vertex 21.390576 40.000000 4.720246
      vertex 18.609424 40.000000 4.720246
      vertex 18.786475 20.881678 4.720246
    endloop
  endfacet
  facet normal -0.000000 -0.000000 1.000000
    outer loop
      vertex 18.609424 40.000000 4.720246
      vertex 18.609424 0.000000 4.720246
      vertex 18.786475 19.118322 4.720246
    endloop
  endfacet
  facet normal -0.587785 -0.000000 0.809017
    outer loop
      vertex 23.640576 0.000000 6.354966
      vertex 23.640576 40.000000 6.354966
      vertex 21.390576 40.000000 4.720246
    endloop
  endfacet
  facet normal -0.587785 -0.000000 0.809017
    outer loop
      vertex 21.500000 20.000000 4.799747
      vertex 23.640576 0.000000 6.354966
      vertex 21.390576 40.000000 4.720246
    endloop
  endfacet
  facet normal -0.587785 -0.000000 0.809017
    outer loop
      vertex 21.390576 20.150609 4.720246
      vertex 21.500000 20.000000 4.799747
      vertex 21.390576 40.000000 4.720246
    endloop
  endfacet
  facet normal -0.587785 -0.000000 0.809017
    outer loop
      vertex 21.390576 0.000000 4.720246
      vertex 23.640576 0.000000 6.354966
      vertex 21.390576 19.849391 4.720246
    endloop
  endfacet
  facet normal -0.587785 0.000000 0.809017
    outer loop
      vertex 21.500000 20.000000 4.799747
      vertex 21.390576 19.849391 4.720246
      vertex 23.640576 0.000000 6.354966
    endloop
  endfacet
  facet normal -0.951056 0.000000 0.309017
    outer loop
      vertex 24.500000 40.000000 9.000000
      vertex 23.640576 40.000000 6.354966
      vertex 24.500000 0.000000 9.000000
    endloop
  endfacet
  facet normal -0.951056 -0.000000 0.309017
    outer loop
      vertex 24.500000 0.000000 9.000000
      vertex 23.640576 40.000000 6.354966
      vertex 23.640576 0.000000 6.354966
    endloop
  endfacet
  facet normal -0.000000 0.000000 1.000000
    outer loop
      vertex 33.786475 29.118322 9.000000
      vertex 24.500000 40.000000 9.000000
      vertex 24.500000 0.000000 9.000000
    endloop
  endfacet
  facet normal -0.000000 0.000000 1.000000
    outer loop
      vertex 33.786475 10.881678 9.000000
      vertex 45.500000 40.000000 9.000000
      vertex 24.500000 0.000000 9.000000
    endloop
  endfacet
  facet normal -0.000000 0.000000 1.000000
    outer loop
      vertex 45.500000 0.000000 9.000000
      vertex 33.786475 9.118322 9.000000
      vertex 24.500000 0.000000 9.000000
    endloop
  endfacet
  facet normal -0.000000 0.000000 1.000000
    outer loop
      vertex 33.786475 9.118322 9.000000
      vertex 33.786475 10.881678 9.000000
      vertex 24.500000 0.000000 9.000000
    endloop
  endfacet
  facet normal 0.000000 0.000000 1.000000
    outer loop
      vertex 35.463525 31.426585 9.000000
      vertex 36.500000 30.000000 9.000000
      vertex 45.500000 40.000000 9.000000
    endloop
  endfacet
  facet normal 0.000000 0.000000 1.000000
    outer loop
      vertex 45.500000 0.000000 9.000000
      vertex 45.500000 40.000000 9.000000
      vertex 35.463525 11.426585 9.000000
    endloop
  endfacet
  facet normal 0.000000 0.000000 1.000000
    outer loop
      vertex 45.500000 0.000000 9.000000
      vertex 35.463525 11.426585 9.000000
      vertex 36.500000 10.000000 9.000000
    endloop
  endfacet
  facet normal 0.000000 0.000000 1.000000
    outer loop
      vertex 45.500000 0.000000 9.000000
      vertex 35.463525 8.573415 9.000000
      vertex 33.786475 9.118322 9.000000
    endloop
  endfacet
  facet normal 0.000000 0.000000 1.000000
    outer loop
      vertex 45.500000 0.000000 9.000000
      vertex 36.500000 10.000000 9.000000
      vertex 35.463525 8.573415 9.000000
    endloop
  endfacet
  facet normal -0.000000 0.000000 1.000000
    outer loop
      vertex 35.463525 28.573415 9.000000
      vertex 33.786475 29.118322 9.000000
      vertex 24.500000 0.000000 9.000000
    endloop
  endfacet
  facet normal -0.000000 0.000000 1.000000
    outer loop
      vertex 33.786475 30.881678 9.000000
      vertex 24.500000 40.000000 9.000000
      vertex 33.786475 29.118322 9.000000
    endloop
  endfacet
  facet normal 0.000000 0.000000 1.000000
    outer loop
      vertex 45.500000 40.000000 9.000000
      vertex 24.500000 40.000000 9.000000
      vertex 33.786475 30.881678 9.000000
    endloop
  endfacet
  facet normal 0.000000 0.000000 1.000000
    outer loop
      vertex 45.500000 40.000000 9.000000
      vertex 33.786475 30.881678 9.000000
      vertex 35.463525 31.426585 9.000000
    endloop
  endfacet
  facet normal 0.000000 0.000000 1.000000
    outer loop
      vertex 45.500000 40.000000 9.000000
      vertex 36.500000 30.000000 9.000000
      vertex 24.500000 0.000000 9.000000
    endloop
  endfacet
  facet normal 0.000000 0.000000 1.000000
    outer loop
      vertex 36.500000 30.000000 9.000000
      vertex 35.463525 28.573415 9.000000
      vertex 24.500000 0.000000 9.000000
    endloop
  endfacet
  facet normal 0.000000 0.000000 1.000000
    outer loop
      vertex 33.786475 10.881678 9.000000
      vertex 35.463525 11.426585 9.000000
      vertex 45.500000 40.000000 9.000000
    endloop
  endfacet
  facet normal 0.951056 -0.000000 0.309017
    outer loop
      vertex 46.359424 0.000000 6.354966
      vertex 46.359424 40.000000 6.354966
      vertex 45.500000 40.000000 9.000000
    endloop
  endfacet
  facet normal 0.951056 0.000000 0.309017
    outer loop
      vertex 45.500000 0.000000 9.000000
      vertex 46.359424 0.000000 6.354966
      vertex 45.500000 40.000000 9.000000
    endloop
  endfacet
  facet normal 0.587785 -0.000000 0.809017
    outer loop
      vertex 48.609424 0.000000 4.720246
      vertex 48.609424 40.000000 4.720246
      vertex 46.359424 40.000000 6.354966
    endloop
  endfacet
  facet normal 0.587785 -0.000000 0.809017
    outer loop
      vertex 46.359424 0.000000 6.354966
      vertex 48.609424 0.000000 4.720246
      vertex 46.359424 40.000000 6.354966
    endloop
  endfacet
  facet normal 0.000000 -0.000000 1.000000
    outer loop
      vertex 48.786475 19.118322 4.720246
      vertex 48.609424 0.000000 4.720246
      vertex 51.390576 0.000000 4.720246
    endloop
  endfacet
  facet normal -0.000000 -0.000000 1.000000
    outer loop
      vertex 51.390576 0.000000 4.720246
      vertex 51.390576 19.849391 4.720246
      vertex 50.463525 18.573415 4.720246
    endloop
  endfacet
  facet normal 0.000000 -0.000000 1.000000
    outer loop
      vertex 48.786475 20.881678 4.720246
      vertex 48.609424 40.000000 4.720246
      vertex 48.786475 19.118322 4.720246
    endloop
  endfacet
  facet normal 0.000000 -0.000000 1.000000
    outer loop
      vertex 48.786475 19.118322 4.720246
      vertex 51.390576 0.000000 4.720246
      vertex 50.463525 18.573415 4.720246
    endloop
  endfacet
  facet normal 0.000000 -0.000000 1.000000
    outer loop
      vertex 50.463525 21.426585 4.720246
      vertex 51.390576 40.000000 4.720246
      vertex 48.786475 20.881678 4.720246
    endloop
  endfacet
  facet normal -0.000000 -0.000000 1.000000
    outer loop
      vertex 51.390576 20.150609 4.720246
      vertex 51.390576 40.000000 4.720246
      vertex 50.463525 21.426585 4.720246
    endloop
  endfacet
  facet normal 0.000000 -0.000000 1.000000
    outer loop
      vertex 51.390576 40.000000 4.720246
      vertex 48.609424 40.000000 4.720246
      vertex 48.786475 20.881678 4.720246
    endloop
  endfacet
  facet normal -0.000000 -0.000000 1.000000
    outer loop
      vertex 48.609424 40.000000 4.720246
      vertex 48.609424 0.000000 4.720246
      vertex 48.786475 19.118322 4.720246
    endloop
  endfacet
  facet normal -0.587785 -0.000000 0.809017
    outer loop
      vertex 53.640576 0.000000 6.354966
      vertex 53.640576 40.000000 6.354966
      vertex 51.390576 40.000000 4.720246
    endloop
  endfacet
  facet normal -0.587785 -0.000000 0.809017
    outer loop
      vertex 51.500000 20.000000 4.799747
      vertex 53.640576 0.000000 6.354966
      vertex 51.390576 40.000000 4.720246
    endloop
  endfacet
  facet normal -0.587785 -0.000000 0.809017
    outer loop
      vertex 51.390576 20.150609 4.720246
      vertex 51.500000 20.000000 4.799747
      vertex 51.390576 40.000000 4.720246
    endloop
  endfacet
  facet normal -0.587785 -0.000000 0.809017
    outer loop
      vertex 51.390576 0.000000 4.720246
      vertex 53.640576 0.000000 6.354966
      vertex 51.390576 19.849391 4.720246
    endloop
  endfacet
  facet normal -0.587785 0.000000 0.809017
    outer loop
      vertex 51.500000 20.000000 4.799747
      vertex 51.390576 19.849391 4.720246
      vertex 53.640576 0.000000 6.354966
    endloop
  endfacet
  facet normal -0.951056 0.000000 0.309017
    outer loop
      vertex 54.500000 40.000000 9.000000
      vertex 53.640576 40.000000 6.354966
      vertex 54.500000 0.000000 9.000000
    endloop
  endfacet
  facet normal -0.951056 -0.000000 0.309017
    outer loop
      vertex 54.500000 0.000000 9.000000
      vertex 53.640576 40.000000 6.354966
      vertex 53.640576 0.000000 6.354966
    endloop
  endfacet
  facet normal -0.000000 0.000000 1.000000
    outer loop
      vertex 61.100000 31.894896 9.000000
      vertex 54.500000 40.000000 9.000000
      vertex 54.500000 0.000000 9.000000
    endloop
  endfacet
  facet normal 0.000000 0.000000 1.000000
    outer loop
      vertex 67.400000 26.856222 9.000000
      vertex 80.000000 26.856222 9.000000
      vertex 80.000000 40.000000 9.000000
    endloop
  endfacet
  facet normal -0.000000 0.000000 1.000000
    outer loop
      vertex 80.000000 0.000000 9.000000
      vertex 80.000000 0.105104 9.000000
      vertex 54.500000 0.000000 9.000000
    endloop
  endfacet
  facet normal 0.000000 0.000000 1.000000
    outer loop
      vertex 67.400000 8.105104 9.000000
      vertex 61.100000 8.105104 9.000000
      vertex 54.500000 0.000000 9.000000
    endloop
  endfacet
  facet normal -0.000000 0.000000 1.000000
    outer loop
      vertex 80.000000 0.105104 9.000000
      vertex 67.400000 8.105104 9.000000
      vertex 54.500000 0.000000 9.000000
    endloop
  endfacet
  facet normal 0.000000 0.000000 1.000000
    outer loop
      vertex 80.000000 0.105104 9.000000
      vertex 67.400000 13.143778 9.000000
      vertex 67.400000 8.105104 9.000000
    endloop
  endfacet
  facet normal 0.000000 0.000000 1.000000
    outer loop
      vertex 80.000000 40.000000 9.000000
      vertex 54.500000 40.000000 9.000000
      vertex 61.100000 31.894896 9.000000
    endloop
  endfacet
  facet normal 0.000000 0.000000 1.000000
    outer loop
      vertex 80.000000 40.000000 9.000000
      vertex 61.100000 31.894896 9.000000
      vertex 67.400000 31.894896 9.000000
    endloop
  endfacet
  facet normal 0.000000 0.000000 1.000000
    outer loop
      vertex 80.000000 40.000000 9.000000
      vertex 67.400000 31.894896 9.000000
      vertex 67.400000 26.856222 9.000000
    endloop
  endfacet
  facet normal 0.000000 0.000000 1.000000
    outer loop
      vertex 80.000000 13.143778 9.000000
      vertex 67.400000 13.143778 9.000000
      vertex 80.000000 0.105104 9.000000
    endloop
  endfacet
  facet normal -0.000000 0.000000 1.000000
    outer loop
      vertex 61.100000 8.105104 9.000000
      vertex 61.100000 31.894896 9.000000
      vertex 54.500000 0.000000 9.000000
    endloop
  endfacet
  facet normal 1.000000 0.000000 -0.000000
    outer loop
      vertex 80.000000 1.729091 1.865267
      vertex 80.000000 0.000000 0.000000
      vertex 80.000000 2.806003 0.000000
    endloop
  endfacet
  facet normal 1.000000 0.000000 -0.000000
    outer loop
      vertex 80.000000 0.437048 5.841766
      vertex 80.000000 0.000000 0.000000
      vertex 80.000000 1.729091 1.865267
    endloop
  endfacet
  facet normal 1.000000 0.000000 -0.000000
    outer loop
      vertex 80.000000 0.000000 9.000000
      vertex 80.000000 0.000000 0.000000
      vertex 80.000000 0.437048 5.841766
    endloop
  endfacet
  facet normal 1.000000 0.000000 0.000000
    outer loop
      vertex 80.000000 0.437048 5.841766
      vertex 80.000000 0.105104 9.000000
      vertex 80.000000 0.000000 9.000000
    endloop
  endfacet
  facet normal 1.000000 0.000000 0.000000
    outer loop
      vertex 80.000000 0.437048 5.841766
      vertex 80.000000 1.729091 1.865267
      vertex 80.000000 2.806003 0.000000
    endloop
  endfacet
  facet normal 1.000000 -0.000000 0.000000
    outer loop
      vertex 80.000000 10.778660 0.462011
      vertex 80.000000 0.437048 5.841766
      vertex 80.000000 10.593699 0.000000
    endloop
  endfacet
  facet normal 1.000000 -0.000000 0.000000
    outer loop
      vertex 80.000000 10.593699 0.000000
      vertex 80.000000 0.437048 5.841766
      vertex 80.000000 2.806003 0.000000
    endloop
  endfacet
  facet normal 1.000000 -0.000000 0.000000
    outer loop
      vertex 80.000000 12.270362 1.524247
      vertex 80.000000 0.437048 5.841766
      vertex 80.000000 10.778660 0.462011
    endloop
  endfacet
  facet normal 1.000000 -0.000000 0.000000
    outer loop
      vertex 80.000000 14.099550 1.611382
      vertex 80.000000 0.437048 5.841766
      vertex 80.000000 12.270362 1.524247
    endloop
  endfacet
  facet normal 1.000000 -0.000000 -0.000000
    outer loop
      vertex 80.000000 20.000000 0.000000
      vertex 80.000000 0.437048 5.841766
      vertex 80.000000 14.099550 1.611382
    endloop
  endfacet
  facet normal 1.000000 -0.000000 -0.000000
    outer loop
      vertex 80.000000 20.000000 0.000000
      vertex 80.000000 14.099550 1.611382
      vertex 80.000000 15.685469 0.695751
    endloop
  endfacet
  facet normal 1.000000 -0.000000 -0.000000
    outer loop
      vertex 80.000000 20.000000 0.000000
      vertex 80.000000 15.685469 0.695751
      vertex 80.000000 16.044154 0.000000
    endloop
  endfacet
  facet normal 1.000000 0.000000 0.000000
    outer loop
      vertex 80.000000 19.003796 3.071250
      vertex 80.000000 0.437048 5.841766
      vertex 80.000000 20.000000 0.000000
    endloop
  endfacet
  facet normal 1.000000 -0.000000 0.000000
    outer loop
      vertex 80.000000 20.000000 3.071250
      vertex 80.000000 19.003796 3.071250
      vertex 80.000000 20.000000 0.000000
    endloop
  endfacet
  facet normal 1.000000 -0.000000 -0.000000
    outer loop
      vertex 80.000000 15.415975 4.709753
      vertex 80.000000 0.437048 5.841766
      vertex 80.000000 17.092095 3.632576
    endloop
  endfacet
  facet normal 1.000000 0.000000 -0.000000
    outer loop
      vertex 80.000000 14.111225 6.215514
      vertex 80.000000 0.437048 5.841766
      vertex 80.000000 15.415975 4.709753
    endloop
  endfacet
  facet normal 1.000000 0.000000 -0.000000
    outer loop
      vertex 80.000000 13.283549 8.027872
      vertex 80.000000 0.437048 5.841766
      vertex 80.000000 14.111225 6.215514
    endloop
  endfacet
  facet normal 1.000000 0.000000 -0.000000
    outer loop
      vertex 80.000000 13.143778 9.000000
      vertex 80.000000 0.437048 5.841766
      vertex 80.000000 13.283549 8.027872
    endloop
  endfacet
  facet normal 1.000000 0.000000 0.000000
    outer loop
      vertex 80.000000 0.105104 9.000000
      vertex 80.000000 0.437048 5.841766
      vertex 80.000000 13.143778 9.000000
    endloop
  endfacet
  facet normal 1.000000 0.000000 0.000000
    outer loop
      vertex 80.000000 19.003796 3.071250
      vertex 80.000000 17.092095 3.632576
      vertex 80.000000 0.437048 5.841766
    endloop
  endfacet
  facet normal 1.000000 0.000000 -0.000000
    outer loop
      vertex 80.000000 10.778660 0.462011
      vertex 80.000000 10.593699 0.000000
      vertex 80.000000 16.044154 0.000000
    endloop
  endfacet
  facet normal 1.000000 0.000000 -0.000000
    outer loop
      vertex 80.000000 14.099550 1.611382
      vertex 80.000000 10.778660 0.462011
      vertex 80.000000 15.685469 0.695751
    endloop
  endfacet
  facet normal 1.000000 0.000000 -0.000000
    outer loop
      vertex 80.000000 15.685469 0.695751
      vertex 80.000000 10.778660 0.462011
      vertex 80.000000 16.044154 0.000000
    endloop
  endfacet
  facet normal 1.000000 0.000000 -0.000000
    outer loop
      vertex 80.000000 12.270362 1.524247
      vertex 80.000000 10.778660 0.462011
      vertex 80.000000 14.099550 1.611382
    endloop
  endfacet
  facet normal 1.000000 0.000000 -0.000000
    outer loop
      vertex 80.000000 20.000000 3.071250
      vertex 80.000000 20.000000 0.000000
      vertex 80.000000 40.000000 0.000000
    endloop
  endfacet
  facet normal 1.000000 -0.000000 -0.000000
    outer loop
      vertex 80.000000 20.996204 3.071250
      vertex 80.000000 20.000000 3.071250
      vertex 80.000000 40.000000 0.000000
    endloop
  endfacet
  facet normal 1.000000 0.000000 -0.000000
    outer loop
      vertex 80.000000 26.856222 9.000000
      vertex 80.000000 26.716451 8.027872
      vertex 80.000000 40.000000 9.000000
    endloop
  endfacet
  facet normal 1.000000 0.000000 -0.000000
    outer loop
      vertex 80.000000 26.716451 8.027872
      vertex 80.000000 25.888775 6.215514
      vertex 80.000000 40.000000 9.000000
    endloop
  endfacet
  facet normal 1.000000 0.000000 -0.000000
    outer loop
      vertex 80.000000 25.888775 6.215514
      vertex 80.000000 24.584025 4.709753
      vertex 80.000000 40.000000 9.000000
    endloop
  endfacet
  facet normal 1.000000 0.000000 0.000000
    outer loop
      vertex 80.000000 40.000000 9.000000
      vertex 80.000000 22.907905 3.632576
      vertex 80.000000 40.000000 0.000000
    endloop
  endfacet
  facet normal 1.000000 0.000000 -0.000000
    outer loop
      vertex 80.000000 22.907905 3.632576
      vertex 80.000000 20.996204 3.071250
      vertex 80.000000 40.000000 0.000000
    endloop
  endfacet
  facet normal 1.000000 0.000000 -0.000000
    outer loop
      vertex 80.000000 24.584025 4.709753
      vertex 80.000000 22.907905 3.632576
      vertex 80.000000 40.000000 9.000000
    endloop
  endfacet
  facet normal 1.000000 0.000000 0.000000
    outer loop
      vertex 18.198062 20.867767 0.000000
      vertex 18.198062 20.867767 2.000000
      vertex 18.198062 19.132233 2.000000
    endloop
  endfacet
  facet normal 1.000000 0.000000 0.000000
    outer loop
      vertex 18.198062 19.132233 0.000000
      vertex 18.198062 20.867767 0.000000
      vertex 18.198062 19.132233 2.000000
    endloop
  endfacet
  facet normal 0.623490 -0.781831 0.000000
    outer loop
      vertex 19.554958 21.949856 0.000000
      vertex 19.554958 21.949856 2.000000
      vertex 18.198062 20.867767 2.000000
    endloop
  endfacet
  facet normal 0.623490 -0.781831 0.000000
    outer loop
      vertex 18.198062 20.867767 0.000000
      vertex 19.554958 21.949856 0.000000
      vertex 18.198062 20.867767 2.000000
    endloop
  endfacet
  facet normal -0.222521 -0.974928 -0.000000
    outer loop
      vertex 21.246980 21.563663 0.000000
      vertex 21.246980 21.563663 2.000000
      vertex 19.554958 21.949856 2.000000
    endloop
  endfacet
  facet normal -0.222521 -0.974928 -0.000000
    outer loop
      vertex 19.554958 21.949856 0.000000
      vertex 21.246980 21.563663 0.000000
      vertex 19.554958 21.949856 2.000000
    endloop
  endfacet
  facet normal -0.900969 -0.433884 0.000000
    outer loop
      vertex 22.000000 20.000000 2.000000
      vertex 21.246980 21.563663 2.000000
      vertex 22.000000 20.000000 0.000000
    endloop
  endfacet
  facet normal -0.900969 -0.433884 0.000000
    outer loop
      vertex 22.000000 20.000000 0.000000
      vertex 21.246980 21.563663 2.000000
      vertex 21.246980 21.563663 0.000000
    endloop
  endfacet
  facet normal -0.900969 0.433884 0.000000
    outer loop
      vertex 22.000000 20.000000 2.000000
      vertex 22.000000 20.000000 0.000000
      vertex 21.246980 18.436337 2.000000
    endloop
  endfacet
  facet normal -0.900969 0.433884 0.000000
    outer loop
      vertex 21.246980 18.436337 2.000000
      vertex 22.000000 20.000000 0.000000
      vertex 21.246980 18.436337 0.000000
    endloop
  endfacet
  facet normal -0.222521 0.974928 0.000000
    outer loop
      vertex 21.246980 18.436337 2.000000
      vertex 21.246980 18.436337 0.000000
      vertex 19.554958 18.050144 2.000000
    endloop
  endfacet
  facet normal -0.222521 0.974928 0.000000
    outer loop
      vertex 19.554958 18.050144 2.000000
      vertex 21.246980 18.436337 0.000000
      vertex 19.554958 18.050144 0.000000
    endloop
  endfacet
  facet normal 0.623490 0.781831 -0.000000
    outer loop
      vertex 19.554958 18.050144 2.000000
      vertex 19.554958 18.050144 0.000000
      vertex 18.198062 19.132233 2.000000
    endloop
  endfacet
  facet normal 0.623490 0.781831 -0.000000
    outer loop
      vertex 18.198062 19.132233 2.000000
      vertex 19.554958 18.050144 0.000000
      vertex 18.198062 19.132233 0.000000
    endloop
  endfacet
  facet normal 1.000000 0.000000 0.000000
    outer loop
      vertex 33.198062 10.867767 0.000000
      vertex 33.198062 10.867767 2.000000
      vertex 33.198062 9.132233 2.000000
    endloop
  endfacet
  facet normal 1.000000 0.000000 0.000000
    outer loop
      vertex 33.198062 9.132233 0.000000
      vertex 33.198062 10.867767 0.000000
      vertex 33.198062 9.132233 2.000000
    endloop
  endfacet
  facet normal 0.623490 -0.781831 0.000000
    outer loop
      vertex 34.554958 11.949856 0.000000
      vertex 34.554958 11.949856 2.000000
      vertex 33.198062 10.867767 2.000000
    endloop
  endfacet
  facet normal 0.623490 -0.781831 0.000000
    outer loop
      vertex 33.198062 10.867767 0.000000
      vertex 34.554958 11.949856 0.000000
      vertex 33.198062 10.867767 2.000000
    endloop
  endfacet
  facet normal -0.222521 -0.974928 -0.000000
    outer loop
      vertex 36.246980 11.563663 0.000000
      vertex 36.246980 11.563663 2.000000
      vertex 34.554958 11.949856 2.000000
    endloop
  endfacet
  facet normal -0.222521 -0.974928 -0.000000
    outer loop
      vertex 34.554958 11.949856 0.000000
      vertex 36.246980 11.563663 0.000000
      vertex 34.554958 11.949856 2.000000
    endloop
  endfacet
  facet normal -0.900969 -0.433884 0.000000
    outer loop
      vertex 37.000000 10.000000 2.000000
      vertex 36.246980 11.563663 2.000000
      vertex 37.000000 10.000000 0.000000
    endloop
  endfacet
  facet normal -0.900969 -0.433884 0.000000
    outer loop
      vertex 37.000000 10.000000 0.000000
      vertex 36.246980 11.563663 2.000000
      vertex 36.246980 11.563663 0.000000
    endloop
  endfacet
  facet normal -0.900969 0.433884 0.000000
    outer loop
      vertex 37.000000 10.000000 2.000000
      vertex 37.000000 10.000000 0.000000
      vertex 36.246980 8.436337 2.000000
    endloop
  endfacet
  facet normal -0.900969 0.433884 0.000000
    outer loop
      vertex 36.246980 8.436337 2.000000
      vertex 37.000000 10.000000 0.000000
      vertex 36.246980 8.436337 0.000000
    endloop
  endfacet
  facet normal -0.222521 0.974928 0.000000
    outer loop
      vertex 36.246980 8.436337 2.000000
      vertex 36.246980 8.436337 0.000000
      vertex 34.554958 8.050144 2.000000
    endloop
  endfacet
  facet normal -0.222521 0.974928 0.000000
    outer loop
      vertex 34.554958 8.050144 2.000000
      vertex 36.246980 8.436337 0.000000
      vertex 34.554958 8.050144 0.000000
    endloop
  endfacet
  facet normal 0.623490 0.781831 -0.000000
    outer loop
      vertex 34.554958 8.050144 2.000000
      vertex 34.554958 8.050144 0.000000
      vertex 33.198062 9.132233 2.000000
    endloop
  endfacet
  facet normal 0.623490 0.781831 -0.000000
    outer loop
      vertex 33.198062 9.132233 2.000000
      vertex 34.554958 8.050144 0.000000
      vertex 33.198062 9.132233 0.000000
    endloop
  endfacet
  facet normal 1.000000 0.000000 0.000000
    outer loop
      vertex 33.198062 30.867767 0.000000
      vertex 33.198062 30.867767 2.000000
      vertex 33.198062 29.132233 2.000000
    endloop
  endfacet
  facet normal 1.000000 0.000000 0.000000
    outer loop
      vertex 33.198062 29.132233 0.000000
      vertex 33.198062 30.867767 0.000000
      vertex 33.198062 29.132233 2.000000
    endloop
  endfacet
  facet normal 0.623490 -0.781831 0.000000
    outer loop
      vertex 34.554958 31.949856 0.000000
      vertex 34.554958 31.949856 2.000000
      vertex 33.198062 30.867767 2.000000
    endloop
  endfacet
  facet normal 0.623490 -0.781831 0.000000
    outer loop
      vertex 33.198062 30.867767 0.000000
      vertex 34.554958 31.949856 0.000000
      vertex 33.198062 30.867767 2.000000
    endloop
  endfacet
  facet normal -0.222521 -0.974928 -0.000000
    outer loop
      vertex 36.246980 31.563663 0.000000
      vertex 36.246980 31.563663 2.000000
      vertex 34.554958 31.949856 2.000000
    endloop
  endfacet
  facet normal -0.222521 -0.974928 -0.000000
    outer loop
      vertex 34.554958 31.949856 0.000000
      vertex 36.246980 31.563663 0.000000
      vertex 34.554958 31.949856 2.000000
    endloop
  endfacet
  facet normal -0.900969 -0.433884 0.000000
    outer loop
      vertex 37.000000 30.000000 2.000000
      vertex 36.246980 31.563663 2.000000
      vertex 37.000000 30.000000 0.000000
    endloop
  endfacet
  facet normal -0.900969 -0.433884 0.000000
    outer loop
      vertex 37.000000 30.000000 0.000000
      vertex 36.246980 31.563663 2.000000
      vertex 36.246980 31.563663 0.000000
    endloop
  endfacet
  facet normal -0.900969 0.433884 0.000000
    outer loop
      vertex 37.000000 30.000000 2.000000
      vertex 37.000000 30.000000 0.000000
      vertex 36.246980 28.436337 2.000000
    endloop
  endfacet
  facet normal -0.900969 0.433884 0.000000
    outer loop
      vertex 36.246980 28.436337 2.000000
      vertex 37.000000 30.000000 0.000000
      vertex 36.246980 28.436337 0.000000
    endloop
  endfacet
  facet normal -0.222521 0.974928 0.000000
    outer loop
      vertex 36.246980 28.436337 2.000000
      vertex 36.246980 28.436337 0.000000
      vertex 34.554958 28.050144 2.000000
    endloop
  endfacet
  facet normal -0.222521 0.974928 0.000000
    outer loop
      vertex 34.554958 28.050144 2.000000
      vertex 36.246980 28.436337 0.000000
      vertex 34.554958 28.050144 0.000000
    endloop
  endfacet
  facet normal 0.623490 0.781831 -0.000000
    outer loop
      vertex 34.554958 28.050144 2.000000
      vertex 34.554958 28.050144 0.000000
      vertex 33.198062 29.132233 2.000000
    endloop
  endfacet
  facet normal 0.623490 0.781831 -0.000000
    outer loop
      vertex 33.198062 29.132233 2.000000
      vertex 34.554958 28.050144 0.000000
      vertex 33.198062 29.132233 0.000000
    endloop
  endfacet
  facet normal 1.000000 0.000000 0.000000
    outer loop
      vertex 48.198062 20.867767 0.000000
      vertex 48.198062 20.867767 2.000000
      vertex 48.198062 19.132233 2.000000
    endloop
  endfacet
  facet normal 1.000000 0.000000 0.000000
    outer loop
      vertex 48.198062 19.132233 0.000000
      vertex 48.198062 20.867767 0.000000
      vertex 48.198062 19.132233 2.000000
    endloop
  endfacet
  facet normal 0.623490 -0.781831 0.000000
    outer loop
      vertex 49.554958 21.949856 0.000000
      vertex 49.554958 21.949856 2.000000
      vertex 48.198062 20.867767 2.000000
    endloop
  endfacet
  facet normal 0.623490 -0.781831 0.000000
    outer loop
      vertex 48.198062 20.867767 0.000000
      vertex 49.554958 21.949856 0.000000
      vertex 48.198062 20.867767 2.000000
    endloop
  endfacet
  facet normal -0.222521 -0.974928 -0.000000
    outer loop
      vertex 51.246980 21.563663 0.000000
      vertex 51.246980 21.563663 2.000000
      vertex 49.554958 21.949856 2.000000
    endloop
  endfacet
  facet normal -0.222521 -0.974928 -0.000000
    outer loop
      vertex 49.554958 21.949856 0.000000
      vertex 51.246980 21.563663 0.000000
      vertex 49.554958 21.949856 2.000000
    endloop
  endfacet
  facet normal -0.900969 -0.433884 0.000000
    outer loop
      vertex 52.000000 20.000000 2.000000
      vertex 51.246980 21.563663 2.000000
      vertex 52.000000 20.000000 0.000000
    endloop
  endfacet
  facet normal -0.900969 -0.433884 0.000000
    outer loop
      vertex 52.000000 20.000000 0.000000
      vertex 51.246980 21.563663 2.000000
      vertex 51.246980 21.563663 0.000000
    endloop
  endfacet
  facet normal -0.900969 0.433884 0.000000
    outer loop
      vertex 52.000000 20.000000 2.000000
      vertex 52.000000 20.000000 0.000000
      vertex 51.246980 18.436337 2.000000
    endloop
  endfacet
  facet normal -0.900969 0.433884 0.000000
    outer loop
      vertex 51.246980 18.436337 2.000000
      vertex 52.000000 20.000000 0.000000
      vertex 51.246980 18.436337 0.000000
    endloop
  endfacet
  facet normal -0.222521 0.974928 0.000000
    outer loop
      vertex 51.246980 18.436337 2.000000
      vertex 51.246980 18.436337 0.000000
      vertex 49.554958 18.050144 2.000000
    endloop
  endfacet
  facet normal -0.222521 0.974928 0.000000
    outer loop
      vertex 49.554958 18.050144 2.000000
      vertex 51.246980 18.436337 0.000000
      vertex 49.554958 18.050144 0.000000
    endloop
  endfacet
  facet normal 0.623490 0.781831 -0.000000
    outer loop
      vertex 49.554958 18.050144 2.000000
      vertex 49.554958 18.050144 0.000000
      vertex 48.198062 19.132233 2.000000
    endloop
  endfacet
  facet normal 0.623490 0.781831 -0.000000
    outer loop
      vertex 48.198062 19.132233 2.000000
      vertex 49.554958 18.050144 0.000000
      vertex 48.198062 19.132233 0.000000
    endloop
  endfacet
  facet normal 1.000000 0.000000 0.000000
    outer loop
      vertex 61.100000 8.262229 7.505060
      vertex 61.100000 9.037455 5.119160
      vertex 61.100000 10.291796 2.946577
    endloop
  endfacet
  facet normal 1.000000 0.000000 0.000000
    outer loop
      vertex 61.100000 13.460039 0.000000
      vertex 61.100000 8.262229 7.505060
      vertex 61.100000 11.970433 1.082262
    endloop
  endfacet
  facet normal 1.000000 0.000000 0.000000
    outer loop
      vertex 61.100000 11.970433 1.082262
      vertex 61.100000 8.262229 7.505060
      vertex 61.100000 10.291796 2.946577
    endloop
  endfacet
  facet normal 1.000000 -0.000000 -0.000000
    outer loop
      vertex 61.100000 26.539961 0.000000
      vertex 61.100000 8.262229 7.505060
      vertex 61.100000 13.460039 0.000000
    endloop
  endfacet
  facet normal 1.000000 -0.000000 0.000000
    outer loop
      vertex 61.100000 28.029567 1.082262
      vertex 61.100000 8.262229 7.505060
      vertex 61.100000 26.539961 0.000000
    endloop
  endfacet
  facet normal 1.000000 -0.000000 0.000000
    outer loop
      vertex 61.100000 29.708204 2.946577
      vertex 61.100000 8.262229 7.505060
      vertex 61.100000 28.029567 1.082262
    endloop
  endfacet
  facet normal 1.000000 -0.000000 0.000000
    outer loop
      vertex 61.100000 30.962545 5.119160
      vertex 61.100000 8.262229 7.505060
      vertex 61.100000 29.708204 2.946577
    endloop
  endfacet
  facet normal 1.000000 -0.000000 0.000000
    outer loop
      vertex 61.100000 31.737771 7.505060
      vertex 61.100000 8.262229 7.505060
      vertex 61.100000 30.962545 5.119160
    endloop
  endfacet
  facet normal 1.000000 -0.000000 0.000000
    outer loop
      vertex 61.100000 31.894896 9.000000
      vertex 61.100000 8.262229 7.505060
      vertex 61.100000 31.737771 7.505060
    endloop
  endfacet
  facet normal 1.000000 -0.000000 -0.000000
    outer loop
      vertex 61.100000 8.105104 9.000000
      vertex 61.100000 8.262229 7.505060
      vertex 61.100000 31.894896 9.000000
    endloop
  endfacet
  facet normal 0.000000 -0.587785 0.809017
    outer loop
      vertex 67.400000 26.539961 0.000000
      vertex 67.400000 28.029567 1.082262
      vertex 61.100000 28.029567 1.082262
    endloop
  endfacet
  facet normal 0.000000 -0.587785 0.809017
    outer loop
      vertex 61.100000 26.539961 0.000000
      vertex 67.400000 26.539961 0.000000
      vertex 61.100000 28.029567 1.082262
    endloop
  endfacet
  facet normal -1.000000 0.000000 0.000000
    outer loop
      vertex 67.400000 13.283549 8.027872
      vertex 67.400000 13.460039 0.000000
      vertex 67.400000 13.143778 9.000000
    endloop
  endfacet
  facet normal -1.000000 0.000000 0.000000
    outer loop
      vertex 67.400000 13.283549 8.027872
      vertex 67.400000 14.111225 6.215514
      vertex 67.400000 13.460039 0.000000
    endloop
  endfacet
  facet normal -1.000000 0.000000 0.000000
    outer loop
      vertex 67.400000 14.111225 6.215514
      vertex 67.400000 15.415975 4.709753
      vertex 67.400000 13.460039 0.000000
    endloop
  endfacet
  facet normal -1.000000 -0.000000 0.000000
    outer loop
      vertex 67.400000 13.460039 0.000000
      vertex 67.400000 17.092095 3.632576
      vertex 67.400000 26.539961 0.000000
    endloop
  endfacet
  facet normal -1.000000 0.000000 -0.000000
    outer loop
      vertex 67.400000 28.029567 1.082262
      vertex 67.400000 19.003796 3.071250
      vertex 67.400000 29.708204 2.946577
    endloop
  endfacet
  facet normal -1.000000 0.000000 -0.000000
    outer loop
      vertex 67.400000 29.708204 2.946577
      vertex 67.400000 20.996204 3.071250
      vertex 67.400000 30.962545 5.119160
    endloop
  endfacet
  facet normal -1.000000 0.000000 -0.000000
    outer loop
      vertex 67.400000 31.737771 7.505060
      vertex 67.400000 22.907905 3.632576
      vertex 67.400000 31.894896 9.000000
    endloop
  endfacet
  facet normal -1.000000 0.000000 0.000000
    outer loop
      vertex 67.400000 22.907905 3.632576
      vertex 67.400000 24.584025 4.709753
      vertex 67.400000 31.894896 9.000000
    endloop
  endfacet
  facet normal -1.000000 0.000000 0.000000
    outer loop
      vertex 67.400000 24.584025 4.709753
      vertex 67.400000 25.888775 6.215514
      vertex 67.400000 31.894896 9.000000
    endloop
  endfacet
  facet normal -1.000000 0.000000 0.000000
    outer loop
      vertex 67.400000 31.894896 9.000000
      vertex 67.400000 26.716451 8.027872
      vertex 67.400000 26.856222 9.000000
    endloop
  endfacet
  facet normal -1.000000 0.000000 0.000000
    outer loop
      vertex 67.400000 25.888775 6.215514
      vertex 67.400000 26.716451 8.027872
      vertex 67.400000 31.894896 9.000000
    endloop
  endfacet
  facet normal -1.000000 0.000000 -0.000000
    outer loop
      vertex 67.400000 30.962545 5.119160
      vertex 67.400000 22.907905 3.632576
      vertex 67.400000 31.737771 7.505060
    endloop
  endfacet
  facet normal -1.000000 0.000000 0.000000
    outer loop
      vertex 67.400000 20.996204 3.071250
      vertex 67.400000 22.907905 3.632576
      vertex 67.400000 30.962545 5.119160
    endloop
  endfacet
  facet normal -1.000000 0.000000 0.000000
    outer loop
      vertex 67.400000 19.003796 3.071250
      vertex 67.400000 20.996204 3.071250
      vertex 67.400000 29.708204 2.946577
    endloop
  endfacet
  facet normal -1.000000 0.000000 -0.000000
    outer loop
      vertex 67.400000 26.539961 0.000000
      vertex 67.400000 19.003796 3.071250
      vertex 67.400000 28.029567 1.082262
    endloop
  endfacet
  facet normal -1.000000 0.000000 0.000000
    outer loop
      vertex 67.400000 17.092095 3.632576
      vertex 67.400000 19.003796 3.071250
      vertex 67.400000 26.539961 0.000000
    endloop
  endfacet
  facet normal -1.000000 0.000000 0.000000
    outer loop
      vertex 67.400000 15.415975 4.709753
      vertex 67.400000 17.092095 3.632576
      vertex 67.400000 13.460039 0.000000
    endloop
  endfacet
  facet normal -1.000000 0.000000 0.000000
    outer loop
      vertex 67.400000 13.460039 0.000000
      vertex 67.400000 11.970433 1.082262
      vertex 67.400000 13.143778 9.000000
    endloop
  endfacet
  facet normal -1.000000 0.000000 -0.000000
    outer loop
      vertex 67.400000 11.970433 1.082262
      vertex 67.400000 10.291796 2.946577
      vertex 67.400000 13.143778 9.000000
    endloop
  endfacet
  facet normal -1.000000 0.000000 -0.000000
    outer loop
      vertex 67.400000 10.291796 2.946577
      vertex 67.400000 9.037455 5.119160
      vertex 67.400000 13.143778 9.000000
    endloop
  endfacet
  facet normal -1.000000 0.000000 -0.000000
    outer loop
      vertex 67.400000 9.037455 5.119160
      vertex 67.400000 8.262229 7.505060
      vertex 67.400000 13.143778 9.000000
    endloop
  endfacet
  facet normal -1.000000 0.000000 -0.000000
    outer loop
      vertex 67.400000 8.262229 7.505060
      vertex 67.400000 8.105104 9.000000
      vertex 67.400000 13.143778 9.000000
    endloop
  endfacet
  facet normal 0.000000 0.587785 0.809017
    outer loop
      vertex 67.400000 11.970433 1.082262
      vertex 67.400000 13.460039 0.000000
      vertex 61.100000 13.460039 0.000000
    endloop
  endfacet
  facet normal 0.000000 0.587785 0.809017
    outer loop
      vertex 61.100000 11.970433 1.082262
      vertex 67.400000 11.970433 1.082262
      vertex 61.100000 13.460039 0.000000
    endloop
  endfacet
  facet normal 0.433884 -0.900969 0.000000
    outer loop
      vertex 72.136337 21.246980 0.000000
      vertex 73.700000 22.000000 0.000000
      vertex 73.700000 22.000000 3.365991
    endloop
  endfacet
  facet normal 0.433884 -0.900969 0.000000
    outer loop
      vertex 72.136337 21.246980 3.144884
      vertex 72.136337 21.246980 0.000000
      vertex 73.700000 22.000000 3.365991
    endloop
  endfacet
  facet normal 0.974928 -0.222521 0.000000
    outer loop
      vertex 71.750144 19.554958 0.000000
      vertex 72.136337 21.246980 0.000000
      vertex 72.136337 21.246980 3.144884
    endloop
  endfacet
  facet normal 0.974928 -0.222521 0.000000
    outer loop
      vertex 71.750144 19.554958 3.071250
      vertex 71.750144 19.554958 0.000000
      vertex 72.079099 20.996204 3.071250
    endloop
  endfacet
  facet normal 0.974928 -0.222521 -0.000000
    outer loop
      vertex 72.079099 20.996204 3.071250
      vertex 71.750144 19.554958 0.000000
      vertex 72.136337 21.246980 3.144884
    endloop
  endfacet
  facet normal -0.433884 -0.900969 0.000000
    outer loop
      vertex 73.700000 22.000000 0.000000
      vertex 75.263663 21.246980 0.000000
      vertex 75.263663 21.246980 3.144884
    endloop
  endfacet
  facet normal -0.433884 -0.900969 0.000000
    outer loop
      vertex 73.700000 22.000000 3.365991
      vertex 73.700000 22.000000 0.000000
      vertex 75.263663 21.246980 3.144884
    endloop
  endfacet
  facet normal -0.974928 -0.222521 -0.000000
    outer loop
      vertex 75.649856 19.554958 0.000000
      vertex 75.649856 19.554958 3.071250
      vertex 75.263663 21.246980 0.000000
    endloop
  endfacet
  facet normal -0.974928 -0.222521 -0.000000
    outer loop
      vertex 75.263663 21.246980 0.000000
      vertex 75.649856 19.554958 3.071250
      vertex 75.320901 20.996204 3.071250
    endloop
  endfacet
  facet normal -0.974928 -0.222521 -0.000000
    outer loop
      vertex 75.263663 21.246980 0.000000
      vertex 75.320901 20.996204 3.071250
      vertex 75.263663 21.246980 3.144884
    endloop
  endfacet
  facet normal -0.781831 0.623490 0.000000
    outer loop
      vertex 75.649856 19.554958 3.071250
      vertex 75.649856 19.554958 0.000000
      vertex 75.210319 19.003796 3.071250
    endloop
  endfacet
  facet normal -0.781831 0.623490 -0.000000
    outer loop
      vertex 75.210319 19.003796 3.071250
      vertex 75.649856 19.554958 0.000000
      vertex 74.567767 18.198062 0.000000
    endloop
  endfacet
  facet normal -0.781831 0.623490 0.000000
    outer loop
      vertex 75.210319 19.003796 3.071250
      vertex 74.567767 18.198062 0.000000
      vertex 74.567767 18.198062 3.307835
    endloop
  endfacet
  facet normal -0.000000 1.000000 0.000000
    outer loop
      vertex 74.567767 18.198062 0.000000
      vertex 72.832233 18.198062 0.000000
      vertex 74.567767 18.198062 3.307835
    endloop
  endfacet
  facet normal 0.000000 1.000000 -0.000000
    outer loop
      vertex 74.567767 18.198062 3.307835
      vertex 72.832233 18.198062 0.000000
      vertex 72.832233 18.198062 3.307835
    endloop
  endfacet
  facet normal 0.781831 0.623490 -0.000000
    outer loop
      vertex 72.189681 19.003796 3.071250
      vertex 72.832233 18.198062 3.307835
      vertex 72.832233 18.198062 0.000000
    endloop
  endfacet
  facet normal 0.781831 0.623490 -0.000000
    outer loop
      vertex 71.750144 19.554958 3.071250
      vertex 72.189681 19.003796 3.071250
      vertex 71.750144 19.554958 0.000000
    endloop
  endfacet
  facet normal 0.781831 0.623490 0.000000
    outer loop
      vertex 71.750144 19.554958 0.000000
      vertex 72.189681 19.003796 3.071250
      vertex 72.832233 18.198062 0.000000
    endloop
  endfacet
  facet normal -0.809017 -0.587785 0.000000
    outer loop
      vertex 21.500000 20.000000 4.799747
      vertex 21.390576 20.150609 4.720246
      vertex 21.500000 20.000000 2.000000
    endloop
  endfacet
  facet normal -0.809017 -0.587785 -0.000000
    outer loop
      vertex 21.500000 20.000000 2.000000
      vertex 21.390576 20.150609 4.720246
      vertex 20.463525 21.426585 4.720246
    endloop
  endfacet
  facet normal -0.809017 -0.587785 0.000000
    outer loop
      vertex 21.500000 20.000000 2.000000
      vertex 20.463525 21.426585 4.720246
      vertex 20.463525 21.426585 2.000000
    endloop
  endfacet
  facet normal 0.309017 -0.951056 0.000000
    outer loop
      vertex 20.463525 21.426585 2.000000
      vertex 20.463525 21.426585 4.720246
      vertex 18.786475 20.881678 4.720246
    endloop
  endfacet
  facet normal 0.309017 -0.951056 0.000000
    outer loop
      vertex 18.786475 20.881678 2.000000
      vertex 20.463525 21.426585 2.000000
      vertex 18.786475 20.881678 4.720246
    endloop
  endfacet
  facet normal 1.000000 0.000000 0.000000
    outer loop
      vertex 18.786475 20.881678 2.000000
      vertex 18.786475 20.881678 4.720246
      vertex 18.786475 19.118322 4.720246
    endloop
  endfacet
  facet normal 1.000000 0.000000 0.000000
    outer loop
      vertex 18.786475 19.118322 2.000000
      vertex 18.786475 20.881678 2.000000
      vertex 18.786475 19.118322 4.720246
    endloop
  endfacet
  facet normal 0.309017 0.951056 -0.000000
    outer loop
      vertex 20.463525 18.573415 4.720246
      vertex 20.463525 18.573415 2.000000
      vertex 18.786475 19.118322 4.720246
    endloop
  endfacet
  facet normal 0.309017 0.951056 -0.000000
    outer loop
      vertex 18.786475 19.118322 4.720246
      vertex 20.463525 18.573415 2.000000
      vertex 18.786475 19.118322 2.000000
    endloop
  endfacet
  facet normal -0.809017 0.587785 0.000000
    outer loop
      vertex 21.390576 19.849391 4.720246
      vertex 21.500000 20.000000 4.799747
      vertex 21.500000 20.000000 2.000000
    endloop
  endfacet
  facet normal -0.809017 0.587785 -0.000000
    outer loop
      vertex 21.390576 19.849391 4.720246
      vertex 21.500000 20.000000 2.000000
      vertex 20.463525 18.573415 4.720246
    endloop
  endfacet
  facet normal -0.809017 0.587785 0.000000
    outer loop
      vertex 21.500000 20.000000 2.000000
      vertex 20.463525 18.573415 2.000000
      vertex 20.463525 18.573415 4.720246
    endloop
  endfacet
  facet normal 0.309017 0.951056 -0.000000
    outer loop
      vertex 35.463525 8.573415 9.000000
      vertex 35.463525 8.573415 2.000000
      vertex 33.786475 9.118322 9.000000
    endloop
  endfacet
  facet normal 0.309017 0.951056 -0.000000
    outer loop
      vertex 33.786475 9.118322 9.000000
      vertex 35.463525 8.573415 2.000000
      vertex 33.786475 9.118322 2.000000
    endloop
  endfacet
  facet normal 1.000000 0.000000 0.000000
    outer loop
      vertex 33.786475 10.881678 2.000000
      vertex 33.786475 10.881678 9.000000
      vertex 33.786475 9.118322 9.000000
    endloop
  endfacet
  facet normal 1.000000 0.000000 0.000000
    outer loop
      vertex 33.786475 9.118322 2.000000
      vertex 33.786475 10.881678 2.000000
      vertex 33.786475 9.118322 9.000000
    endloop
  endfacet
  facet normal -0.809017 0.587785 0.000000
    outer loop
      vertex 36.500000 10.000000 9.000000
      vertex 36.500000 10.000000 2.000000
      vertex 35.463525 8.573415 9.000000
    endloop
  endfacet
  facet normal -0.809017 0.587785 0.000000
    outer loop
      vertex 35.463525 8.573415 9.000000
      vertex 36.500000 10.000000 2.000000
      vertex 35.463525 8.573415 2.000000
    endloop
  endfacet
  facet normal -0.809017 -0.587785 0.000000
    outer loop
      vertex 36.500000 10.000000 9.000000
      vertex 35.463525 11.426585 9.000000
      vertex 36.500000 10.000000 2.000000
    endloop
  endfacet
  facet normal -0.809017 -0.587785 0.000000
    outer loop
      vertex 36.500000 10.000000 2.000000
      vertex 35.463525 11.426585 9.000000
      vertex 35.463525 11.426585 2.000000
    endloop
  endfacet
  facet normal 0.309017 -0.951056 0.000000
    outer loop
      vertex 35.463525 11.426585 2.000000
      vertex 35.463525 11.426585 9.000000
      vertex 33.786475 10.881678 9.000000
    endloop
  endfacet
  facet normal 0.309017 -0.951056 0.000000
    outer loop
      vertex 33.786475 10.881678 2.000000
      vertex 35.463525 11.426585 2.000000
      vertex 33.786475 10.881678 9.000000
    endloop
  endfacet
  facet normal 0.309017 0.951056 -0.000000
    outer loop
      vertex 35.463525 28.573415 9.000000
      vertex 35.463525 28.573415 2.000000
      vertex 33.786475 29.118322 9.000000
    endloop
  endfacet
  facet normal 0.309017 0.951056 -0.000000
    outer loop
      vertex 33.786475 29.118322 9.000000
      vertex 35.463525 28.573415 2.000000
      vertex 33.786475 29.118322 2.000000
    endloop
  endfacet
  facet normal 1.000000 0.000000 0.000000
    outer loop
      vertex 33.786475 30.881678 2.000000
      vertex 33.786475 30.881678 9.000000
      vertex 33.786475 29.118322 9.000000
    endloop
  endfacet
  facet normal 1.000000 0.000000 0.000000
    outer loop
      vertex 33.786475 29.118322 2.000000
      vertex 33.786475 30.881678 2.000000
      vertex 33.786475 29.118322 9.000000
    endloop
  endfacet
  facet normal -0.809017 0.587785 0.000000
    outer loop
      vertex 36.500000 30.000000 9.000000
      vertex 36.500000 30.000000 2.000000
      vertex 35.463525 28.573415 9.000000
    endloop
  endfacet
  facet normal -0.809017 0.587785 0.000000
    outer loop
      vertex 35.463525 28.573415 9.000000
      vertex 36.500000 30.000000 2.000000
      vertex 35.463525 28.573415 2.000000
    endloop
  endfacet
  facet normal -0.809017 -0.587785 0.000000
    outer loop
      vertex 36.500000 30.000000 9.000000
      vertex 35.463525 31.426585 9.000000
      vertex 36.500000 30.000000 2.000000
    endloop
  endfacet
  facet normal -0.809017 -0.587785 0.000000
    outer loop
      vertex 36.500000 30.000000 2.000000
      vertex 35.463525 31.426585 9.000000
      vertex 35.463525 31.426585 2.000000
    endloop
  endfacet
  facet normal 0.309017 -0.951056 0.000000
    outer loop
      vertex 35.463525 31.426585 2.000000
      vertex 35.463525 31.426585 9.000000
      vertex 33.786475 30.881678 9.000000
    endloop
  endfacet
  facet normal 0.309017 -0.951056 0.000000
    outer loop
      vertex 33.786475 30.881678 2.000000
      vertex 35.463525 31.426585 2.000000
      vertex 33.786475 30.881678 9.000000
    endloop
  endfacet
  facet normal -0.809017 -0.587785 0.000000
    outer loop
      vertex 51.500000 20.000000 4.799747
      vertex 51.390576 20.150609 4.720246
      vertex 51.500000 20.000000 2.000000
    endloop
  endfacet
  facet normal -0.809017 -0.587785 -0.000000
    outer loop
      vertex 51.500000 20.000000 2.000000
      vertex 51.390576 20.150609 4.720246
      vertex 50.463525 21.426585 4.720246
    endloop
  endfacet
  facet normal -0.809017 -0.587785 0.000000
    outer loop
      vertex 51.500000 20.000000 2.000000
      vertex 50.463525 21.426585 4.720246
      vertex 50.463525 21.426585 2.000000
    endloop
  endfacet
  facet normal 0.309017 -0.951056 0.000000
    outer loop
      vertex 50.463525 21.426585 2.000000
      vertex 50.463525 21.426585 4.720246
      vertex 48.786475 20.881678 4.720246
    endloop
  endfacet
  facet normal 0.309017 -0.951056 0.000000
    outer loop
      vertex 48.786475 20.881678 2.000000
      vertex 50.463525 21.426585 2.000000
      vertex 48.786475 20.881678 4.720246
    endloop
  endfacet
  facet normal 1.000000 0.000000 0.000000
    outer loop
      vertex 48.786475 20.881678 2.000000
      vertex 48.786475 20.881678 4.720246
      vertex 48.786475 19.118322 4.720246
    endloop
  endfacet
  facet normal 1.000000 0.000000 0.000000
    outer loop
      vertex 48.786475 19.118322 2.000000
      vertex 48.786475 20.881678 2.000000
      vertex 48.786475 19.118322 4.720246
    endloop
  endfacet
  facet normal 0.309017 0.951056 -0.000000
    outer loop
      vertex 50.463525 18.573415 4.720246
      vertex 50.463525 18.573415 2.000000
      vertex 48.786475 19.118322 4.720246
    endloop
  endfacet
  facet normal 0.309017 0.951056 -0.000000
    outer loop
      vertex 48.786475 19.118322 4.720246
      vertex 50.463525 18.573415 2.000000
      vertex 48.786475 19.118322 2.000000
    endloop
  endfacet
  facet normal -0.809017 0.587785 0.000000
    outer loop
      vertex 51.390576 19.849391 4.720246
      vertex 51.500000 20.000000 4.799747
      vertex 51.500000 20.000000 2.000000
    endloop
  endfacet
  facet normal -0.809017 0.587785 -0.000000
    outer loop
      vertex 51.390576 19.849391 4.720246
      vertex 51.500000 20.000000 2.000000
      vertex 50.463525 18.573415 4.720246
    endloop
  endfacet
  facet normal -0.809017 0.587785 0.000000
    outer loop
      vertex 51.500000 20.000000 2.000000
      vertex 50.463525 18.573415 2.000000
      vertex 50.463525 18.573415 4.720246
    endloop
  endfacet
  facet normal 0.000000 -0.989821 0.142315
    outer loop
      vertex 80.000000 26.716451 8.027872
      vertex 80.000000 26.856222 9.000000
      vertex 67.400000 26.856222 9.000000
    endloop
  endfacet
  facet normal -0.000000 -0.989821 0.142315
    outer loop
      vertex 67.400000 26.716451 8.027872
      vertex 80.000000 26.716451 8.027872
      vertex 67.400000 26.856222 9.000000
    endloop
  endfacet
  facet normal 0.000000 -0.994522 0.104529
    outer loop
      vertex 67.400000 31.737771 7.505060
      vertex 67.400000 31.894896 9.000000
      vertex 61.100000 31.894896 9.000000
    endloop
  endfacet
  facet normal 0.000000 -0.994522 0.104529
    outer loop
      vertex 61.100000 31.737771 7.505060
      vertex 67.400000 31.737771 7.505060
      vertex 61.100000 31.894896 9.000000
    endloop
  endfacet
  facet normal -0.000000 0.994522 0.104529
    outer loop
      vertex 67.400000 8.262229 7.505060
      vertex 61.100000 8.262229 7.505060
      vertex 67.400000 8.105104 9.000000
    endloop
  endfacet
  facet normal -0.000000 0.994522 0.104529
    outer loop
      vertex 67.400000 8.105104 9.000000
      vertex 61.100000 8.262229 7.505060
      vertex 61.100000 8.105104 9.000000
    endloop
  endfacet
  facet normal 0.000000 0.989821 0.142315
    outer loop
      vertex 80.000000 13.283549 8.027872
      vertex 67.400000 13.283549 8.027872
      vertex 80.000000 13.143778 9.000000
    endloop
  endfacet
  facet normal -0.000000 0.989821 0.142315
    outer loop
      vertex 80.000000 13.143778 9.000000
      vertex 67.400000 13.283549 8.027872
      vertex 67.400000 13.143778 9.000000
    endloop
  endfacet
  facet normal -0.000000 0.909632 0.415415
    outer loop
      vertex 80.000000 14.111225 6.215514
      vertex 67.400000 14.111225 6.215514
      vertex 80.000000 13.283549 8.027872
    endloop
  endfacet
  facet normal 0.000000 0.909632 0.415415
    outer loop
      vertex 80.000000 13.283549 8.027872
      vertex 67.400000 14.111225 6.215514
      vertex 67.400000 13.283549 8.027872
    endloop
  endfacet
  facet normal -0.000000 0.755749 0.654861
    outer loop
      vertex 80.000000 15.415975 4.709753
      vertex 67.400000 15.415975 4.709753
      vertex 80.000000 14.111225 6.215514
    endloop
  endfacet
  facet normal -0.000000 0.755749 0.654861
    outer loop
      vertex 80.000000 14.111225 6.215514
      vertex 67.400000 15.415975 4.709753
      vertex 67.400000 14.111225 6.215514
    endloop
  endfacet
  facet normal 0.000000 0.540641 0.841254
    outer loop
      vertex 80.000000 15.415975 4.709753
      vertex 80.000000 17.092095 3.632576
      vertex 67.400000 17.092095 3.632576
    endloop
  endfacet
  facet normal 0.000000 0.540641 0.841254
    outer loop
      vertex 67.400000 15.415975 4.709753
      vertex 80.000000 15.415975 4.709753
      vertex 67.400000 17.092095 3.632576
    endloop
  endfacet
  facet normal 0.000000 0.281733 0.959493
    outer loop
      vertex 80.000000 17.092095 3.632576
      vertex 80.000000 19.003796 3.071250
      vertex 75.210319 19.003796 3.071250
    endloop
  endfacet
  facet normal 0.000000 0.281733 0.959493
    outer loop
      vertex 72.832233 18.198062 3.307835
      vertex 80.000000 17.092095 3.632576
      vertex 74.567767 18.198062 3.307835
    endloop
  endfacet
  facet normal -0.000000 0.281733 0.959493
    outer loop
      vertex 74.567767 18.198062 3.307835
      vertex 80.000000 17.092095 3.632576
      vertex 75.210319 19.003796 3.071250
    endloop
  endfacet
  facet normal -0.000000 0.281733 0.959493
    outer loop
      vertex 67.400000 19.003796 3.071250
      vertex 80.000000 17.092095 3.632576
      vertex 72.832233 18.198062 3.307835
    endloop
  endfacet
  facet normal 0.000000 0.281733 0.959493
    outer loop
      vertex 67.400000 19.003796 3.071250
      vertex 72.832233 18.198062 3.307835
      vertex 72.189681 19.003796 3.071250
    endloop
  endfacet
  facet normal 0.000000 0.281733 0.959493
    outer loop
      vertex 67.400000 17.092095 3.632576
      vertex 80.000000 17.092095 3.632576
      vertex 67.400000 19.003796 3.071250
    endloop
  endfacet
  facet normal -0.000000 0.000000 0.000000
    outer loop
      vertex 80.000000 19.003796 3.071250
      vertex 80.000000 20.000000 3.071250
      vertex 80.000000 20.996204 3.071250
    endloop
  endfacet
  facet normal 0.000000 0.000000 1.000000
    outer loop
      vertex 75.649856 19.554958 3.071250
      vertex 80.000000 19.003796 3.071250
      vertex 75.320901 20.996204 3.071250
    endloop
  endfacet
  facet normal 0.000000 0.000000 1.000000
    outer loop
      vertex 75.320901 20.996204 3.071250
      vertex 80.000000 19.003796 3.071250
      vertex 80.000000 20.996204 3.071250
    endloop
  endfacet
  facet normal 0.000000 0.000000 1.000000
    outer loop
      vertex 75.210319 19.003796 3.071250
      vertex 80.000000 19.003796 3.071250
      vertex 75.649856 19.554958 3.071250
    endloop
  endfacet
  facet normal -0.000000 -0.281733 0.959493
    outer loop
      vertex 67.400000 22.907905 3.632576
      vertex 72.136337 21.246980 3.144884
      vertex 73.700000 22.000000 3.365991
    endloop
  endfacet
  facet normal 0.000000 -0.281733 0.959493
    outer loop
      vertex 75.263663 21.246980 3.144884
      vertex 80.000000 20.996204 3.071250
      vertex 73.700000 22.000000 3.365991
    endloop
  endfacet
  facet normal -0.000000 -0.281733 0.959493
    outer loop
      vertex 72.079099 20.996204 3.071250
      vertex 72.136337 21.246980 3.144884
      vertex 67.400000 22.907905 3.632576
    endloop
  endfacet
  facet normal 0.000000 -0.281733 0.959493
    outer loop
      vertex 75.320901 20.996204 3.071250
      vertex 80.000000 20.996204 3.071250
      vertex 75.263663 21.246980 3.144884
    endloop
  endfacet
  facet normal 0.000000 -0.281733 0.959493
    outer loop
      vertex 80.000000 20.996204 3.071250
      vertex 80.000000 22.907905 3.632576
      vertex 73.700000 22.000000 3.365991
    endloop
  endfacet
  facet normal 0.000000 -0.281733 0.959493
    outer loop
      vertex 80.000000 22.907905 3.632576
      vertex 67.400000 22.907905 3.632576
      vertex 73.700000 22.000000 3.365991
    endloop
  endfacet
  facet normal 0.000000 -0.281733 0.959493
    outer loop
      vertex 67.400000 22.907905 3.632576
      vertex 67.400000 20.996204 3.071250
      vertex 72.079099 20.996204 3.071250
    endloop
  endfacet
  facet normal 0.000000 -0.540641 0.841254
    outer loop
      vertex 80.000000 22.907905 3.632576
      vertex 80.000000 24.584025 4.709753
      vertex 67.400000 24.584025 4.709753
    endloop
  endfacet
  facet normal 0.000000 -0.540641 0.841254
    outer loop
      vertex 67.400000 22.907905 3.632576
      vertex 80.000000 22.907905 3.632576
      vertex 67.400000 24.584025 4.709753
    endloop
  endfacet
  facet normal 0.000000 -0.755749 0.654861
    outer loop
      vertex 80.000000 24.584025 4.709753
      vertex 80.000000 25.888775 6.215514
      vertex 67.400000 25.888775 6.215514
    endloop
  endfacet
  facet normal 0.000000 -0.755749 0.654861
    outer loop
      vertex 67.400000 24.584025 4.709753
      vertex 80.000000 24.584025 4.709753
      vertex 67.400000 25.888775 6.215514
    endloop
  endfacet
  facet normal -0.000000 -0.909632 0.415415
    outer loop
      vertex 80.000000 25.888775 6.215514
      vertex 80.000000 26.716451 8.027872
      vertex 67.400000 26.716451 8.027872
    endloop
  endfacet
  facet normal 0.000000 -0.909632 0.415415
    outer loop
      vertex 67.400000 25.888775 6.215514
      vertex 80.000000 25.888775 6.215514
      vertex 67.400000 26.716451 8.027872
    endloop
  endfacet
  facet normal 0.000000 0.000000 -1.000000
    outer loop
      vertex 21.500000 20.000000 2.000000
      vertex 22.000000 20.000000 2.000000
      vertex 21.246980 18.436337 2.000000
    endloop
  endfacet
  facet normal 0.000000 0.000000 -1.000000
    outer loop
      vertex 20.463525 18.573415 2.000000
      vertex 21.246980 18.436337 2.000000
      vertex 19.554958 18.050144 2.000000
    endloop
  endfacet
  facet normal 0.000000 0.000000 -1.000000
    outer loop
      vertex 18.786475 19.118322 2.000000
      vertex 19.554958 18.050144 2.000000
      vertex 18.198062 19.132233 2.000000
    endloop
  endfacet
  facet normal 0.000000 0.000000 -1.000000
    outer loop
      vertex 20.463525 18.573415 2.000000
      vertex 19.554958 18.050144 2.000000
      vertex 18.786475 19.118322 2.000000
    endloop
  endfacet
  facet normal 0.000000 0.000000 -1.000000
    outer loop
      vertex 18.198062 20.867767 2.000000
      vertex 18.786475 19.118322 2.000000
      vertex 18.198062 19.132233 2.000000
    endloop
  endfacet
  facet normal 0.000000 -0.000000 -1.000000
    outer loop
      vertex 18.786475 20.881678 2.000000
      vertex 18.198062 20.867767 2.000000
      vertex 20.463525 21.426585 2.000000
    endloop
  endfacet
  facet normal 0.000000 0.000000 -1.000000
    outer loop
      vertex 19.554958 21.949856 2.000000
      vertex 21.246980 21.563663 2.000000
      vertex 20.463525 21.426585 2.000000
    endloop
  endfacet
  facet normal 0.000000 0.000000 -1.000000
    outer loop
      vertex 19.554958 21.949856 2.000000
      vertex 20.463525 21.426585 2.000000
      vertex 18.198062 20.867767 2.000000
    endloop
  endfacet
  facet normal 0.000000 0.000000 -1.000000
    outer loop
      vertex 18.786475 19.118322 2.000000
      vertex 18.198062 20.867767 2.000000
      vertex 18.786475 20.881678 2.000000
    endloop
  endfacet
  facet normal -0.000000 0.000000 -1.000000
    outer loop
      vertex 20.463525 21.426585 2.000000
      vertex 21.246980 21.563663 2.000000
      vertex 22.000000 20.000000 2.000000
    endloop
  endfacet
  facet normal 0.000000 0.000000 -1.000000
    outer loop
      vertex 20.463525 21.426585 2.000000
      vertex 22.000000 20.000000 2.000000
      vertex 21.500000 20.000000 2.000000
    endloop
  endfacet
  facet normal 0.000000 0.000000 -1.000000
    outer loop
      vertex 21.500000 20.000000 2.000000
      vertex 21.246980 18.436337 2.000000
      vertex 20.463525 18.573415 2.000000
    endloop
  endfacet
  facet normal 0.000000 0.000000 -1.000000
    outer loop
      vertex 36.500000 10.000000 2.000000
      vertex 37.000000 10.000000 2.000000
      vertex 36.246980 8.436337 2.000000
    endloop
  endfacet
  facet normal 0.000000 0.000000 -1.000000
    outer loop
      vertex 35.463525 8.573415 2.000000
      vertex 36.246980 8.436337 2.000000
      vertex 34.554958 8.050144 2.000000
    endloop
  endfacet
  facet normal 0.000000 0.000000 -1.000000
    outer loop
      vertex 33.786475 9.118322 2.000000
      vertex 34.554958 8.050144 2.000000
      vertex 33.198062 9.132233 2.000000
    endloop
  endfacet
  facet normal 0.000000 0.000000 -1.000000
    outer loop
      vertex 35.463525 8.573415 2.000000
      vertex 34.554958 8.050144 2.000000
      vertex 33.786475 9.118322 2.000000
    endloop
  endfacet
  facet normal 0.000000 0.000000 -1.000000
    outer loop
      vertex 33.198062 10.867767 2.000000
      vertex 33.786475 9.118322 2.000000
      vertex 33.198062 9.132233 2.000000
    endloop
  endfacet
  facet normal 0.000000 -0.000000 -1.000000
    outer loop
      vertex 33.786475 10.881678 2.000000
      vertex 33.198062 10.867767 2.000000
      vertex 35.463525 11.426585 2.000000
    endloop
  endfacet
  facet normal 0.000000 0.000000 -1.000000
    outer loop
      vertex 34.554958 11.949856 2.000000
      vertex 36.246980 11.563663 2.000000
      vertex 35.463525 11.426585 2.000000
    endloop
  endfacet
  facet normal 0.000000 0.000000 -1.000000
    outer loop
      vertex 34.554958 11.949856 2.000000
      vertex 35.463525 11.426585 2.000000
      vertex 33.198062 10.867767 2.000000
    endloop
  endfacet
  facet normal 0.000000 0.000000 -1.000000
    outer loop
      vertex 33.786475 9.118322 2.000000
      vertex 33.198062 10.867767 2.000000
      vertex 33.786475 10.881678 2.000000
    endloop
  endfacet
  facet normal -0.000000 0.000000 -1.000000
    outer loop
      vertex 35.463525 11.426585 2.000000
      vertex 36.246980 11.563663 2.000000
      vertex 37.000000 10.000000 2.000000
    endloop
  endfacet
  facet normal 0.000000 0.000000 -1.000000
    outer loop
      vertex 35.463525 11.426585 2.000000
      vertex 37.000000 10.000000 2.000000
      vertex 36.500000 10.000000 2.000000
    endloop
  endfacet
  facet normal 0.000000 0.000000 -1.000000
    outer loop
      vertex 36.500000 10.000000 2.000000
      vertex 36.246980 8.436337 2.000000
      vertex 35.463525 8.573415 2.000000
    endloop
  endfacet
  facet normal 0.000000 0.000000 -1.000000
    outer loop
      vertex 36.500000 30.000000 2.000000
      vertex 37.000000 30.000000 2.000000
      vertex 36.246980 28.436337 2.000000
    endloop
  endfacet
  facet normal 0.000000 0.000000 -1.000000
    outer loop
      vertex 35.463525 28.573415 2.000000
      vertex 36.246980 28.436337 2.000000
      vertex 34.554958 28.050144 2.000000
    endloop
  endfacet
  facet normal 0.000000 0.000000 -1.000000
    outer loop
      vertex 33.786475 29.118322 2.000000
      vertex 34.554958 28.050144 2.000000
      vertex 33.198062 29.132233 2.000000
    endloop
  endfacet
  facet normal 0.000000 0.000000 -1.000000
    outer loop
      vertex 35.463525 28.573415 2.000000
      vertex 34.554958 28.050144 2.000000
      vertex 33.786475 29.118322 2.000000
    endloop
  endfacet
  facet normal 0.000000 0.000000 -1.000000
    outer loop
      vertex 33.198062 30.867767 2.000000
      vertex 33.786475 29.118322 2.000000
      vertex 33.198062 29.132233 2.000000
    endloop
  endfacet
  facet normal 0.000000 -0.000000 -1.000000
    outer loop
      vertex 33.786475 30.881678 2.000000
      vertex 33.198062 30.867767 2.000000
      vertex 35.463525 31.426585 2.000000
    endloop
  endfacet
  facet normal 0.000000 0.000000 -1.000000
    outer loop
      vertex 34.554958 31.949856 2.000000
      vertex 36.246980 31.563663 2.000000
      vertex 35.463525 31.426585 2.000000
    endloop
  endfacet
  facet normal 0.000000 0.000000 -1.000000
    outer loop
      vertex 34.554958 31.949856 2.000000
      vertex 35.463525 31.426585 2.000000
      vertex 33.198062 30.867767 2.000000
    endloop
  endfacet
  facet normal 0.000000 0.000000 -1.000000
    outer loop
      vertex 33.786475 29.118322 2.000000
      vertex 33.198062 30.867767 2.000000
      vertex 33.786475 30.881678 2.000000
    endloop
  endfacet
  facet normal -0.000000 0.000000 -1.000000
    outer loop
      vertex 35.463525 31.426585 2.000000
      vertex 36.246980 31.563663 2.000000
      vertex 37.000000 30.000000 2.000000
    endloop
  endfacet
  facet normal 0.000000 0.000000 -1.000000
    outer loop
      vertex 35.463525 31.426585 2.000000
      vertex 37.000000 30.000000 2.000000
      vertex 36.500000 30.000000 2.000000
    endloop
  endfacet
  facet normal 0.000000 0.000000 -1.000000
    outer loop
      vertex 36.500000 30.000000 2.000000
      vertex 36.246980 28.436337 2.000000
      vertex 35.463525 28.573415 2.000000
    endloop
  endfacet
  facet normal 0.000000 0.000000 -1.000000
    outer loop
      vertex 51.500000 20.000000 2.000000
      vertex 52.000000 20.000000 2.000000
      vertex 51.246980 18.436337 2.000000
    endloop
  endfacet
  facet normal 0.000000 0.000000 -1.000000
    outer loop
      vertex 50.463525 18.573415 2.000000
      vertex 51.246980 18.436337 2.000000
      vertex 49.554958 18.050144 2.000000
    endloop
  endfacet
  facet normal 0.000000 0.000000 -1.000000
    outer loop
      vertex 48.786475 19.118322 2.000000
      vertex 49.554958 18.050144 2.000000
      vertex 48.198062 19.132233 2.000000
    endloop
  endfacet
  facet normal 0.000000 0.000000 -1.000000
    outer loop
      vertex 50.463525 18.573415 2.000000
      vertex 49.554958 18.050144 2.000000
      vertex 48.786475 19.118322 2.000000
    endloop
  endfacet
  facet normal 0.000000 0.000000 -1.000000
    outer loop
      vertex 48.198062 20.867767 2.000000
      vertex 48.786475 19.118322 2.000000
      vertex 48.198062 19.132233 2.000000
    endloop
  endfacet
  facet normal 0.000000 -0.000000 -1.000000
    outer loop
      vertex 48.786475 20.881678 2.000000
      vertex 48.198062 20.867767 2.000000
      vertex 50.463525 21.426585 2.000000
    endloop
  endfacet
  facet normal 0.000000 0.000000 -1.000000
    outer loop
      vertex 49.554958 21.949856 2.000000
      vertex 51.246980 21.563663 2.000000
      vertex 50.463525 21.426585 2.000000
    endloop
  endfacet
  facet normal 0.000000 0.000000 -1.000000
    outer loop
      vertex 49.554958 21.949856 2.000000
      vertex 50.463525 21.426585 2.000000
      vertex 48.198062 20.867767 2.000000
    endloop
  endfacet
  facet normal 0.000000 0.000000 -1.000000
    outer loop
      vertex 48.786475 19.118322 2.000000
      vertex 48.198062 20.867767 2.000000
      vertex 48.786475 20.881678 2.000000
    endloop
  endfacet
  facet normal -0.000000 0.000000 -1.000000
    outer loop
      vertex 50.463525 21.426585 2.000000
      vertex 51.246980 21.563663 2.000000
      vertex 52.000000 20.000000 2.000000
    endloop
  endfacet
  facet normal 0.000000 0.000000 -1.000000
    outer loop
      vertex 50.463525 21.426585 2.000000
      vertex 52.000000 20.000000 2.000000
      vertex 51.500000 20.000000 2.000000
    endloop
  endfacet
  facet normal 0.000000 0.000000 -1.000000
    outer loop
      vertex 51.500000 20.000000 2.000000
      vertex 51.246980 18.436337 2.000000
      vertex 50.463525 18.573415 2.000000
    endloop
  endfacet
  facet normal -0.000000 0.951057 0.309017
    outer loop
      vertex 67.400000 9.037455 5.119160
      vertex 61.100000 9.037455 5.119160
      vertex 67.400000 8.262229 7.505060
    endloop
  endfacet
  facet normal -0.000000 0.951057 0.309017
    outer loop
      vertex 67.400000 8.262229 7.505060
      vertex 61.100000 9.037455 5.119160
      vertex 61.100000 8.262229 7.505060
    endloop
  endfacet
  facet normal 0.000000 -0.951057 0.309017
    outer loop
      vertex 67.400000 30.962545 5.119160
      vertex 67.400000 31.737771 7.505060
      vertex 61.100000 31.737771 7.505060
    endloop
  endfacet
  facet normal 0.000000 -0.951057 0.309017
    outer loop
      vertex 61.100000 30.962545 5.119160
      vertex 67.400000 30.962545 5.119160
      vertex 61.100000 31.737771 7.505060
    endloop
  endfacet
  facet normal 0.000000 -0.866025 0.500000
    outer loop
      vertex 67.400000 29.708204 2.946577
      vertex 67.400000 30.962545 5.119160
      vertex 61.100000 30.962545 5.119160
    endloop
  endfacet
  facet normal 0.000000 -0.866025 0.500000
    outer loop
      vertex 61.100000 29.708204 2.946577
      vertex 67.400000 29.708204 2.946577
      vertex 61.100000 30.962545 5.119160
    endloop
  endfacet
  facet normal 0.000000 -0.743145 0.669131
    outer loop
      vertex 67.400000 28.029567 1.082262
      vertex 67.400000 29.708204 2.946577
      vertex 61.100000 29.708204 2.946577
    endloop
  endfacet
  facet normal 0.000000 -0.743145 0.669131
    outer loop
      vertex 61.100000 28.029567 1.082262
      vertex 67.400000 28.029567 1.082262
      vertex 61.100000 29.708204 2.946577
    endloop
  endfacet
  facet normal -0.000000 0.743145 0.669131
    outer loop
      vertex 67.400000 11.970433 1.082262
      vertex 61.100000 11.970433 1.082262
      vertex 67.400000 10.291796 2.946577
    endloop
  endfacet
  facet normal -0.000000 0.743145 0.669131
    outer loop
      vertex 67.400000 10.291796 2.946577
      vertex 61.100000 11.970433 1.082262
      vertex 61.100000 10.291796 2.946577
    endloop
  endfacet
  facet normal -0.000000 0.866025 0.500000
    outer loop
      vertex 67.400000 10.291796 2.946577
      vertex 61.100000 10.291796 2.946577
      vertex 67.400000 9.037455 5.119160
    endloop
  endfacet
  facet normal -0.000000 0.866025 0.500000
    outer loop
      vertex 67.400000 9.037455 5.119160
      vertex 61.100000 10.291796 2.946577
      vertex 61.100000 9.037455 5.119160
    endloop
  endfacet
  facet normal -0.000000 -0.000000 1.000000
    outer loop
      vertex 72.189681 19.003796 3.071250
      vertex 71.750144 19.554958 3.071250
      vertex 67.400000 20.996204 3.071250
    endloop
  endfacet
  facet normal 0.000000 0.000000 1.000000
    outer loop
      vertex 67.400000 20.996204 3.071250
      vertex 71.750144 19.554958 3.071250
      vertex 72.079099 20.996204 3.071250
    endloop
  endfacet
  facet normal -0.000000 0.000000 1.000000
    outer loop
      vertex 72.189681 19.003796 3.071250
      vertex 67.400000 20.996204 3.071250
      vertex 67.400000 19.003796 3.071250
    endloop
  endfacet
endsolid OpenSCAD_Model
